<?xml version="1.0" encoding="UTF-8"?><svg id="Layer_1" xmlns="http://www.w3.org/2000/svg" viewBox="0 0 1566.52 482"><defs><style>.cls-1{fill:#252317;}.cls-1,.cls-2,.cls-3,.cls-4,.cls-5,.cls-6,.cls-7{stroke-width:0px;}.cls-2{fill:#939598;}.cls-3{fill:#d7e1e4;}.cls-4{fill:#000;}.cls-5{fill:#231f20;}.cls-8{stroke:#231f20;stroke-width:8px;}.cls-8,.cls-7{fill:#ed1c26;}.cls-6{fill:#636037;}</style></defs><path class="cls-6" d="M271.37,291.97c.98-.34.08-1.77,1-3.05"/><path class="cls-1" d="M272.37,288.92c-.92,1.28-.02,2.71-1,3.05-.48-.23-1.12-.67-1.5-1.02"/><path class="cls-7" d="M383.36,353.87c-.76,0-1.51,0-2.24-.02-2.15-.03-4.23-.11-6.18-.23-1.99-.12-3.92-.29-5.73-.5-1.85-.22-3.63-.49-5.29-.8-1.71-.32-3.34-.71-4.86-1.14-1.57-.44-3.06-.95-4.43-1.51-1.42-.58-2.77-1.23-4-1.94-1.27-.73-2.46-1.54-3.54-2.42-1.1-.9-2.12-1.88-3.02-2.93-.91-1.05-1.72-2.21-2.43-3.42-.7-1.2-1.3-2.5-1.8-3.85-.49-1.33-.89-2.75-1.19-4.22-.29-1.43-.5-2.96-.61-4.54-.11-1.54-.14-3.16-.08-4.83.06-1.56.18-3.1.38-4.56.2-1.49.47-2.94.82-4.32.35-1.4.77-2.76,1.27-4.06.5-1.3,1.08-2.57,1.73-3.77.65-1.2,1.39-2.36,2.2-3.46.8-1.08,1.69-2.14,2.64-3.12.93-.97,1.96-1.91,3.06-2.8,1.06-.86,2.22-1.7,3.45-2.5,1.18-.76,2.46-1.52,3.82-2.24,1.3-.69,2.71-1.37,4.19-2.02,1.42-.63,2.96-1.25,4.57-1.86,1.54-.58,3.21-1.16,4.95-1.73,1.67-.55,3.47-1.1,5.36-1.65,1.8-.52,3.74-1.06,5.77-1.59,1.99-.52,4.05-1.04,6.2-1.56,2.13-.52,4.35-1.03,6.63-1.55,2.28-.51,4.64-1.03,7.08-1.55,2.59-.55,5.09-1.06,7.51-1.54,2.47-.48,4.82-.92,7-1.29,2.31-.39,4.5-.73,6.51-1.01,2.14-.29,4.17-.52,6.04-.68,1.96-.17,3.84-.28,5.59-.31.47,0,.92-.01,1.37-.01,1.31,0,2.59.04,3.79.12,1.68.12,3.29.31,4.77.59,1.55.29,3.02.67,4.38,1.14,1.42.49,2.75,1.09,3.98,1.78,1.25.71,2.43,1.53,3.49,2.46,1.07.93,2.05,1.98,2.93,3.12.86,1.12,1.63,2.37,2.3,3.7.65,1.3,1.22,2.71,1.7,4.21.46,1.45.84,3.02,1.14,4.67.29,1.6.5,3.32.63,5.11.13,1.75.18,3.61.15,5.53-.02,1.8-.12,3.58-.27,5.28-.16,1.72-.39,3.41-.68,5.02-.3,1.63-.67,3.22-1.11,4.74-.45,1.54-.97,3.03-1.56,4.44-.6,1.43-1.28,2.81-2.02,4.12-.75,1.31-1.58,2.58-2.49,3.77-.9,1.19-1.88,2.33-2.94,3.41-1.04,1.06-2.17,2.08-3.37,3.04-1.17.94-2.45,1.84-3.78,2.68-1.3.82-2.71,1.61-4.17,2.34-1.44.72-2.97,1.4-4.56,2.03-1.55.62-3.21,1.21-4.95,1.75-1.69.53-3.48,1.04-5.34,1.51-1.8.45-3.74.89-5.75,1.29-1.97.39-4.05.76-6.18,1.09-2.12.33-4.35.64-6.63.91-2.23.27-4.62.52-7.1.74-2.57.23-5.11.42-7.57.57-2.43.14-4.81.25-7.1.3-1.5.04-2.96.06-4.39.06ZM401.23,322.23c.19,0,.41-.02.66-.05.72-.1,1.08-.25,1.26-.36.08-.05.24-.15.44-.53.27-.52.48-1.3.63-2.33.19-1.24.28-2.81.29-4.79.01-2.54-.13-4.42-.41-5.62-.07-.29-.14-.5-.19-.64-.2,0-.44.03-.71.07-.6.1-1.06.25-1.34.43-.15.09-.31.23-.49.59-.27.52-.48,1.29-.64,2.3-.19,1.22-.28,2.75-.29,4.69-.01,2.48.12,4.33.41,5.5.09.37.18.6.24.73.04,0,.09,0,.15,0Z"/><path class="cls-5" d="M436.1,276.38c1.22,0,2.39.04,3.51.11,1.52.1,2.95.28,4.3.53,1.35.25,2.62.58,3.81.99s2.29.9,3.32,1.48c1.03.58,1.97,1.24,2.84,1.99.87.75,1.66,1.59,2.37,2.53.71.93,1.35,1.96,1.91,3.07.56,1.11,1.05,2.32,1.46,3.62.41,1.3.75,2.69,1.01,4.16.26,1.48.46,3.04.58,4.69.12,1.65.17,3.38.14,5.19-.02,1.7-.11,3.36-.26,4.96-.15,1.61-.36,3.16-.64,4.67-.28,1.5-.62,2.95-1.02,4.35-.4,1.39-.87,2.73-1.41,4.01-.54,1.28-1.14,2.51-1.8,3.68-.67,1.17-1.4,2.28-2.2,3.34-.8,1.06-1.67,2.07-2.6,3.02-.94.95-1.94,1.86-3.01,2.71-1.07.85-2.21,1.66-3.42,2.42-1.21.76-2.48,1.47-3.83,2.15-1.35.67-2.76,1.3-4.25,1.89-1.49.59-3.05,1.14-4.68,1.66-1.63.52-3.33,1-5.11,1.44-1.78.45-3.63.86-5.56,1.24-1.93.38-3.93.74-6.02,1.06-2.08.32-4.25.62-6.49.89-2.24.27-4.57.51-6.98.73-2.56.23-5.04.42-7.44.56-2.4.14-4.72.24-6.96.3-1.46.04-2.9.05-4.29.05-.74,0-1.47,0-2.19-.02-2.08-.03-4.08-.1-5.99-.22-1.92-.12-3.75-.28-5.5-.48-1.75-.21-3.42-.46-5.01-.76-1.59-.3-3.09-.65-4.51-1.05-1.42-.4-2.76-.86-4.01-1.37-1.25-.51-2.42-1.07-3.51-1.7-1.09-.62-2.09-1.31-3.01-2.05-.92-.75-1.75-1.55-2.5-2.43-.75-.87-1.42-1.81-2-2.82-.59-1.01-1.09-2.08-1.51-3.22-.42-1.14-.76-2.35-1.02-3.63-.26-1.28-.44-2.62-.54-4.03-.1-1.41-.12-2.88-.07-4.4.05-1.44.17-2.83.35-4.18.18-1.35.42-2.64.73-3.89.31-1.25.68-2.44,1.12-3.59.44-1.15.94-2.24,1.51-3.29.57-1.05,1.2-2.04,1.9-2.99.7-.95,1.47-1.86,2.3-2.72.83-.86,1.73-1.69,2.7-2.47.97-.78,2-1.53,3.1-2.25,1.1-.72,2.27-1.4,3.52-2.06s2.55-1.29,3.93-1.9c1.38-.61,2.83-1.2,4.36-1.77,1.52-.57,3.12-1.13,4.79-1.68,1.67-.55,3.41-1.08,5.23-1.61,1.82-.53,3.71-1.05,5.67-1.56,1.96-.52,4-1.03,6.12-1.54,2.12-.51,4.31-1.02,6.57-1.53,2.27-.51,4.61-1.02,7.03-1.54,2.57-.55,5.05-1.06,7.44-1.52,2.39-.47,4.69-.89,6.91-1.27,2.21-.38,4.34-.71,6.37-.98,2.04-.28,3.99-.5,5.85-.66,1.86-.16,3.64-.26,5.33-.3.44,0,.87-.01,1.3-.01M401.23,326.23c.37,0,.76-.03,1.18-.08,1.13-.15,2.08-.44,2.86-.93.78-.49,1.4-1.17,1.87-2.09.48-.93.81-2.1,1.03-3.57.22-1.47.32-3.25.33-5.36.01-2.82-.14-4.98-.52-6.57-.38-1.59-.99-2.6-1.88-3.16-.59-.37-1.3-.54-2.15-.54-.43,0-.9.04-1.41.13-1.13.19-2.08.51-2.86,1.01-.78.5-1.4,1.19-1.88,2.11-.48.92-.82,2.08-1.04,3.53-.22,1.45-.33,3.19-.34,5.27-.02,2.77.14,4.9.52,6.47.38,1.57.99,2.59,1.88,3.18.64.42,1.44.61,2.39.61M436.1,268.38c-.48,0-.97,0-1.46.02-1.83.04-3.79.15-5.85.33-1.94.17-4.03.4-6.23.7-2.09.28-4.26.62-6.65,1.03-2.21.38-4.54.81-7.1,1.31-2.32.45-4.8.96-7.57,1.55-2.46.52-4.86,1.05-7.13,1.56-2.33.53-4.58,1.05-6.69,1.56-2.2.53-4.31,1.06-6.27,1.58-2.06.54-4.03,1.08-5.87,1.62-1.93.56-3.77,1.13-5.48,1.69-1.8.59-3.52,1.19-5.12,1.79-1.68.63-3.29,1.28-4.78,1.94-1.57.69-3.06,1.41-4.45,2.15-1.46.77-2.84,1.58-4.13,2.42-1.34.87-2.62,1.8-3.79,2.75-1.22.99-2.37,2.04-3.42,3.13-1.08,1.12-2.08,2.3-2.98,3.53-.91,1.24-1.75,2.56-2.49,3.92-.73,1.35-1.39,2.78-1.95,4.25-.55,1.44-1.03,2.97-1.41,4.52-.38,1.52-.68,3.12-.9,4.75-.21,1.59-.35,3.26-.41,4.95-.06,1.81-.04,3.58.08,5.26.13,1.75.35,3.45.68,5.05.34,1.67.79,3.29,1.35,4.81.58,1.57,1.29,3.08,2.1,4.48.83,1.42,1.79,2.77,2.85,4.02,1.06,1.23,2.24,2.38,3.53,3.42,1.24,1.01,2.61,1.94,4.06,2.78,1.39.8,2.89,1.53,4.48,2.17,1.51.61,3.14,1.17,4.85,1.65,1.63.46,3.38.87,5.2,1.22,1.75.33,3.63.62,5.57.85,1.88.22,3.89.4,5.96.53,2.03.12,4.17.2,6.37.23.76.01,1.52.02,2.3.02,1.45,0,2.97-.02,4.49-.06,2.33-.06,4.76-.16,7.24-.31,2.49-.15,5.07-.34,7.69-.58,2.48-.22,4.91-.48,7.22-.76,2.34-.28,4.61-.59,6.77-.93,2.19-.34,4.33-.72,6.35-1.12,2.06-.41,4.07-.86,5.95-1.33,1.93-.49,3.81-1.01,5.57-1.57,1.82-.57,3.57-1.2,5.22-1.85,1.7-.67,3.34-1.4,4.87-2.17,1.58-.79,3.1-1.64,4.52-2.53,1.46-.92,2.85-1.91,4.15-2.94,1.32-1.06,2.58-2.19,3.73-3.37,1.17-1.2,2.27-2.47,3.27-3.8,1-1.33,1.93-2.74,2.77-4.2.83-1.45,1.58-2.98,2.24-4.56.65-1.55,1.22-3.19,1.71-4.87.48-1.64.88-3.37,1.21-5.13.32-1.72.56-3.53.73-5.37.17-1.8.26-3.68.29-5.59.03-2.03-.03-4.01-.16-5.87-.14-1.92-.37-3.78-.68-5.52-.32-1.81-.75-3.55-1.26-5.17-.54-1.7-1.19-3.31-1.93-4.8-.78-1.56-1.69-3.01-2.7-4.34-1.04-1.36-2.21-2.61-3.48-3.71-1.27-1.1-2.66-2.08-4.15-2.92-1.43-.81-2.99-1.51-4.63-2.07-1.55-.53-3.21-.97-4.95-1.3-1.64-.3-3.39-.52-5.23-.65-1.29-.09-2.65-.13-4.05-.13h0Z"/><path class="cls-7" d="M483.97,331.27l-2.16-15.38-1.89-13.31-1.29-8.97-.67-4.59-.68-4.62-.69-4.65c-.23-1.55-.47-3.11-.7-4.66s-.48-3.1-.72-4.63c-.24-1.53-.48-3.05-.72-4.54l-.53-3.3,3.15-1.11c1.62-.57,3.16-1.12,4.64-1.65,1.48-.53,2.9-1.04,4.27-1.54s2.69-.99,3.98-1.46c1.29-.48,2.55-.94,3.78-1.4,1.23-.46,2.45-.92,3.65-1.37,1.21-.46,2.41-.91,3.61-1.37,1.2-.46,2.41-.92,3.64-1.4,1.23-.47,2.48-.96,3.76-1.45,1.28-.5,2.59-1.01,3.95-1.54,1.36-.53,2.76-1.08,4.22-1.66,1.46-.58,10.02-3.99,10.02-3.99l.03,5.87c0,1.58.02,3.14.04,4.68.02,1.41.04,2.81.07,4.18.08-.97.17-1.95.26-2.95.15-1.62.31-3.28.48-4.96.17-1.69.36-3.41.56-5.17l.27-2.36s5.21-2.11,6.63-2.69l7.93-3.25,7.13-2.94,31.43-13.06.1,5.88c.03,1.69.07,3.36.11,4.99.04,1.63.09,3.22.14,4.79.06-1.24.12-2.5.19-3.78.08-1.59.17-3.21.27-4.87.1-1.66.21-3.35.32-5.08l.17-2.48,6.23-2.57,3.64-1.5c1.16-.48,2.34-.96,3.58-1.48,1.25-.52,2.47-1.02,3.68-1.51,1.21-.49,2.39-.97,3.58-1.45,1.18-.47,2.36-.94,3.54-1.41,1.18-.47,2.37-.93,3.56-1.4,1.2-.47,2.42-.94,3.66-1.41,1.24-.47,2.51-.96,3.81-1.45,1.31-.49,2.65-1,4.04-1.51,1.39-.52,2.83-1.05,4.34-1.6,1.51-.55,3.07-1.12,4.71-1.7l6.11-2.19-.8,6.45c-.22,1.79-.43,3.58-.64,5.35-.21,1.77-.41,3.54-.6,5.29-.19,1.75-.38,3.49-.56,5.22-.18,1.73-.36,3.44-.53,5.14-.17,1.7-.34,3.38-.5,5.05-.16,1.67-.32,3.32-.48,4.96-.16,1.64-.31,3.27-.45,4.88l-.44,4.8-.84,9.4-1.99,22.8-.4,4.53-.41,4.54-.42,4.57c-.14,1.53-.29,3.06-.44,4.6-.15,1.54-.3,3.09-.46,4.64s-.32,3.12-.48,4.69c-.16,1.57-.33,3.15-.51,4.73-.17,1.59-.35,3.18-.54,4.79-.19,1.6-.38,3.22-.58,4.83-.2,1.62-.41,3.25-.62,4.88-.22,1.63-.44,3.27-.67,4.91l-.49,3.42-3.45.02c-1.75,0-3.45.02-5.08.04-1.64.02-3.22.04-4.75.07-1.54.03-3.02.06-4.47.09-1.45.03-2.86.07-4.24.11-1.37.04-2.69.08-3.98.14-1.3.05-2.57.1-3.82.16-1.26.06-2.5.12-3.74.18-1.23.06-2.46.13-3.7.2-1.23.07-2.46.14-3.71.22-1.24.08-2.49.16-3.75.25-1.26.09-2.54.18-3.84.27-1.3.1-2.63.2-3.98.3-1.35.11-2.73.22-4.15.34-1.42.12-2.88.25-4.38.39-1.5.14-3.04.28-4.63.44l-4.34.42-.05-4.36c0-.87-.02-1.73-.03-2.58-.13,1.26-.27,2.55-.41,3.85l-.36,3.19-3.19.34c-1.72.18-3.38.37-4.98.55-1.6.18-3.15.36-4.65.54-1.5.18-2.95.35-4.37.52-1.42.17-2.8.34-4.15.51-1.35.17-2.68.34-3.99.51-1.31.17-2.6.34-3.88.51-1.28.17-2.55.34-3.82.51l-3.82.52-3.87.54-3.96.56-4.12.59-8.91,1.29-8.89,1.31-1.94-14Z"/><path class="cls-5" d="M632.44,204.26c-.22,1.8-.44,3.6-.64,5.38-.21,1.78-.41,3.56-.6,5.32s-.38,3.51-.56,5.24-.36,3.45-.53,5.15-.34,3.39-.5,5.06c-.16,1.67-.32,3.33-.48,4.97-.16,1.64-.31,3.27-.46,4.89-.15,1.62-.29,3.22-.44,4.81-.14,1.59-.28,3.17-.42,4.74-.14,1.57-.28,3.12-.41,4.67-.14,1.55-.27,3.09-.4,4.62-.13,1.53-.27,3.06-.4,4.58-.13,1.52-.26,3.04-.4,4.55-.13,1.51-.26,3.02-.4,4.53-.13,1.51-.26,3.01-.4,4.52s-.27,3.01-.4,4.52c-.14,1.51-.27,3.02-.41,4.54-.14,1.52-.28,3.03-.42,4.56-.14,1.52-.29,3.05-.44,4.59-.15,1.54-.3,3.08-.46,4.63-.16,1.55-.31,3.11-.48,4.67-.16,1.56-.33,3.14-.5,4.71-.17,1.58-.35,3.17-.54,4.76-.18,1.59-.38,3.2-.57,4.8-.2,1.61-.4,3.22-.62,4.84-.21,1.62-.44,3.25-.67,4.87-1.76,0-3.46.02-5.11.04-1.64.02-3.23.04-4.78.07-1.54.03-3.04.06-4.49.09-1.46.03-2.87.07-4.26.11-1.39.04-2.72.09-4.02.14-1.3.05-2.58.1-3.85.16-1.27.06-2.52.12-3.76.18-1.24.06-2.48.13-3.72.2-1.24.07-2.48.14-3.73.22-1.25.08-2.5.16-3.78.25-1.27.09-2.56.18-3.87.27-1.31.1-2.64.2-4,.31-1.36.11-2.75.22-4.18.34-1.43.12-2.89.25-4.4.39-1.51.14-3.06.28-4.66.44-.02-1.63-.04-3.23-.07-4.8-.03-1.57-.06-3.11-.1-4.61-.04-1.51-.08-2.99-.12-4.45-.04-1.46-.09-2.89-.14-4.31-.05-1.42-.1-2.82-.15-4.22-.05-1.4-.1-2.79-.16-4.18-.05-1.39-.11-2.79-.17-4.19-.06-1.4-.12-2.82-.18-4.26-.06-1.44-.12-2.9-.19-4.38-.06-1.49-.13-3.01-.2-4.57-.07-1.56-.14-3.16-.21-4.81-.07-1.65-.15-3.35-.22-5.11-.08-1.76-.15-3.57-.23-5.45-.82.23-1.23.35-2.06.59-.11,1.92-.22,3.78-.32,5.57-.1,1.79-.2,3.52-.3,5.2-.1,1.68-.19,3.3-.28,4.88-.09,1.58-.18,3.12-.27,4.63-.09,1.51-.18,2.98-.27,4.43-.09,1.45-.18,2.88-.27,4.29-.09,1.41-.18,2.81-.28,4.21-.09,1.4-.19,2.79-.29,4.19-.1,1.4-.2,2.8-.31,4.22s-.22,2.85-.34,4.3c-.12,1.45-.25,2.92-.38,4.42-.13,1.5-.28,3.02-.43,4.56-.15,1.55-.32,3.12-.5,4.73-1.73.19-3.39.37-5,.55-1.61.18-3.16.36-4.67.54-1.51.18-2.97.35-4.39.53-1.42.17-2.81.35-4.17.52-1.36.17-2.69.34-4,.51-1.31.17-2.61.34-3.89.51s-2.56.34-3.83.51c-1.27.17-2.55.34-3.83.52-1.28.18-2.57.35-3.87.54-1.3.18-2.63.37-3.97.56-1.35.19-2.72.39-4.13.59-1.41.2-2.85.41-4.33.62s-3.01.44-4.59.67c-1.58.23-3.21.47-4.9.72-.23-1.67-.46-3.34-.69-5.01-.23-1.67-.46-3.34-.7-5-.23-1.66-.46-3.31-.69-4.94-.23-1.63-.46-3.25-.68-4.86-.23-1.61-.45-3.2-.67-4.78-.22-1.58-.44-3.15-.66-4.7-.22-1.56-.44-3.1-.66-4.64-.22-1.54-.44-3.07-.66-4.6-.22-1.53-.44-3.05-.66-4.58-.22-1.53-.44-3.05-.66-4.58s-.44-3.06-.67-4.6c-.22-1.54-.45-3.08-.68-4.63-.23-1.55-.46-3.1-.69-4.66-.23-1.56-.47-3.11-.71-4.67-.24-1.56-.48-3.11-.72-4.65s-.48-3.07-.73-4.56c1.62-.57,3.17-1.12,4.66-1.66,1.49-.53,2.91-1.05,4.29-1.55,1.38-.5,2.71-.99,4-1.47,1.29-.48,2.55-.95,3.79-1.41,1.24-.46,2.46-.92,3.67-1.38,1.21-.46,2.41-.91,3.62-1.37,1.21-.46,2.42-.93,3.66-1.4,1.23-.47,2.48-.96,3.77-1.46,1.28-.5,2.6-1.01,3.96-1.55,1.36-.53,2.76-1.09,4.23-1.66,1.46-.58,2.98-1.18,4.57-1.82,0,1.59.02,3.16.04,4.71.02,1.55.05,3.07.07,4.57.03,1.5.06,2.98.1,4.44.04,1.46.07,2.91.11,4.34.04,1.44.08,2.86.13,4.29.04,1.43.09,2.85.14,4.29.05,1.44.1,2.88.15,4.35.05,1.47.1,2.95.16,4.47.05,1.52.11,3.07.17,4.67.06,1.6.12,3.24.18,4.93.06,1.7.13,3.45.19,5.26.07,1.81.13,3.69.2,5.64,1.29-.29,1.93-.44,3.22-.73.14-2.01.27-3.96.39-5.84.12-1.88.24-3.7.36-5.46.12-1.76.23-3.47.34-5.13.11-1.66.22-3.28.32-4.87.11-1.59.21-3.15.31-4.68.1-1.54.21-3.06.32-4.57.11-1.51.22-3.01.33-4.52.11-1.51.23-3.01.35-4.54.12-1.52.24-3.06.38-4.62.13-1.56.27-3.14.42-4.75.15-1.61.31-3.25.48-4.92.17-1.67.35-3.38.55-5.11,1.54-.62,3.02-1.22,4.43-1.8,1.42-.58,2.78-1.14,4.1-1.68,1.32-.54,2.6-1.06,3.84-1.58,1.24-.51,2.45-1.01,3.64-1.5,1.19-.49,2.35-.97,3.5-1.45,1.15-.48,2.29-.95,3.43-1.42s2.28-.94,3.42-1.42c1.15-.48,2.3-.96,3.48-1.44,1.17-.49,2.37-.99,3.59-1.49,1.22-.51,2.48-1.03,3.77-1.57,1.29-.54,2.63-1.09,4.01-1.67,1.38-.58,2.81-1.17,4.31-1.79.03,1.71.07,3.38.11,5.02.04,1.64.09,3.25.14,4.84.05,1.58.1,3.14.16,4.67.06,1.53.12,3.04.18,4.53.06,1.49.13,2.97.19,4.43.07,1.46.13,2.92.2,4.37.07,1.45.14,2.9.21,4.36.07,1.46.15,2.92.22,4.39.08,1.48.15,2.97.23,4.48.08,1.52.16,3.06.25,4.63.08,1.57.17,3.18.26,4.82.09,1.65.18,3.33.28,5.07.09,1.74.19,3.52.29,5.37.1,1.84.2,3.75.3,5.71,1.31-.24,1.96-.36,3.28-.6.07-1.88.13-3.71.19-5.49.06-1.78.11-3.51.17-5.19.05-1.69.1-3.33.15-4.93.05-1.61.1-3.17.14-4.71.05-1.54.09-3.05.14-4.53.05-1.49.09-2.95.14-4.4.05-1.45.09-2.88.14-4.31.05-1.43.09-2.84.14-4.26.05-1.42.1-2.84.15-4.26.05-1.43.11-2.86.16-4.31.06-1.45.12-2.91.18-4.39.06-1.48.13-2.98.2-4.51.07-1.53.15-3.08.23-4.66.08-1.58.17-3.2.27-4.84.1-1.65.2-3.33.32-5.05,1.37-.56,2.67-1.1,3.93-1.62,1.26-.52,2.47-1.01,3.64-1.49,1.17-.48,2.35-.97,3.59-1.48,1.24-.52,2.46-1.01,3.66-1.5,1.2-.49,2.38-.97,3.56-1.44,1.18-.47,2.35-.94,3.52-1.4,1.17-.46,2.35-.93,3.55-1.39,1.19-.46,2.4-.93,3.64-1.4,1.23-.47,2.5-.95,3.8-1.44s2.64-.99,4.02-1.5c1.39-.51,2.82-1.04,4.32-1.59s3.06-1.11,4.69-1.69M641.97,192.35l-12.23,4.38c-1.65.59-3.22,1.16-4.73,1.71-1.51.55-2.96,1.08-4.36,1.6-1.4.52-2.75,1.02-4.06,1.52-1.31.49-2.59.98-3.83,1.46-1.25.48-2.47.95-3.68,1.42-1.21.47-2.4.94-3.58,1.4-1.19.47-2.37.94-3.56,1.42-1.19.48-2.39.96-3.6,1.46-1.21.5-2.44,1-3.7,1.52-1.23.51-2.4,1-3.56,1.47-1.17.48-2.38.98-3.65,1.5-.69.28-1.4.58-2.12.87h0s-5.9,2.44-5.9,2.44l-.51.21h0s-4.45,1.85-4.45,1.85l-4.31,1.79-2.97,1.24-1.04.43-3.77,1.57-3.59,1.49-3.47,1.44-3.42,1.42-3.42,1.42-3.49,1.44-3.63,1.49c-1.24.51-2.51,1.03-3.83,1.57-1.32.54-2.68,1.09-4.09,1.67-1.41.58-2.88,1.17-4.42,1.8l-4.4,1.78h0s-4.95,1.98-4.95,1.98c-1.58.63-3.1,1.23-4.55,1.81-1.45.58-2.85,1.13-4.2,1.66-1.35.53-2.66,1.04-3.94,1.54-1.28.5-2.52.98-3.75,1.45-1.22.47-2.43.93-3.63,1.39-1.2.46-2.39.91-3.6,1.37-1.2.45-2.41.91-3.64,1.37-1.23.46-2.48.92-3.77,1.4-1.28.47-2.6.96-3.97,1.46-1.37.5-2.78,1.01-4.25,1.54-1.47.53-3.01,1.08-4.62,1.64l-6.3,2.23,1.07,6.6c.24,1.48.48,3,.72,4.52.24,1.53.48,3.07.71,4.62.24,1.55.47,3.1.7,4.65.23,1.55.46,3.1.69,4.64.23,1.54.45,3.08.68,4.62.22,1.53.45,3.06.67,4.59l.66,4.57.66,4.57.66,4.59.66,4.64.66,4.7.67,4.77.68,4.86.69,4.94.7,4.99.69,5.01,1.1,7.99,7.98-1.17,4.89-.72c1.57-.23,3.1-.45,4.58-.67,1.48-.21,2.92-.42,4.32-.62,1.4-.2,2.77-.4,4.11-.59,1.34-.19,2.66-.38,3.96-.56,1.3-.18,2.58-.36,3.86-.53,1.27-.17,2.54-.35,3.81-.52,1.27-.17,2.53-.34,3.81-.51,1.28-.17,2.56-.34,3.87-.51,1.3-.17,2.63-.34,3.98-.51,1.35-.17,2.72-.34,4.14-.51,1.41-.17,2.86-.35,4.36-.52,1.49-.18,3.03-.35,4.63-.53,1.59-.18,3.24-.36,4.95-.55l4.28-.46,4.07-.4c1.58-.15,3.12-.3,4.61-.43,1.49-.14,2.94-.26,4.35-.38,1.41-.12,2.79-.23,4.13-.34,1.35-.11,2.66-.21,3.96-.3,1.29-.1,2.57-.19,3.82-.27,1.26-.09,2.5-.17,3.73-.24,1.23-.08,2.46-.15,3.68-.22,1.22-.07,2.45-.13,3.67-.2,1.23-.06,2.46-.12,3.71-.18,1.25-.06,2.51-.11,3.8-.16,1.28-.05,2.59-.09,3.95-.13,1.37-.04,2.77-.08,4.21-.11,1.44-.03,2.92-.06,4.44-.09,1.53-.03,3.1-.05,4.73-.07,1.63-.02,3.31-.03,5.06-.04l6.91-.03.98-6.84c.24-1.66.46-3.31.68-4.96.22-1.64.43-3.28.63-4.91.2-1.63.39-3.25.58-4.86.19-1.61.37-3.21.54-4.81.17-1.59.34-3.18.51-4.75.16-1.58.32-3.14.48-4.7.16-1.56.31-3.11.46-4.65.15-1.54.3-3.08.44-4.61.14-1.53.29-3.06.42-4.58.14-1.52.28-3.04.41-4.55.14-1.51.27-3.02.4-4.53l.4-4.53.4-4.53.39-4.53.4-4.59.4-4.62.41-4.67c.14-1.56.28-3.14.42-4.72.14-1.59.29-3.18.44-4.79.15-1.61.3-3.23.45-4.87.15-1.64.31-3.29.47-4.95.16-1.66.33-3.34.5-5.04.17-1.69.35-3.4.53-5.12.18-1.72.37-3.45.56-5.2.19-1.74.39-3.5.6-5.27.21-1.76.42-3.54.64-5.32l1.59-12.89h0ZM632.44,212.26h0,0Z"/><path class="cls-7" d="M1155.13,344.53c-2.24-.34-4.4-.66-6.49-.97l-2.1-.3c-1.4-.2-2.75-.39-3.96-.59-1.79-.28-3.55-.56-5.29-.83-1.74-.27-3.45-.54-5.13-.79-1.69-.26-3.35-.51-5-.76-1.65-.25-3.28-.49-4.9-.73-1.62-.24-3.22-.48-4.82-.71-1.6-.23-3.19-.46-4.78-.69-1.59-.23-3.17-.45-4.76-.68-1.59-.22-3.18-.45-4.79-.67-1.6-.22-3.21-.44-4.84-.67-1.63-.22-3.27-.45-4.93-.67-1.66-.22-3.35-.45-5.06-.67-1.71-.23-3.45-.45-5.22-.68-1.77-.23-3.57-.46-5.42-.69-1.84-.23-3.73-.47-5.66-.71-1.93-.24-3.9-.48-5.93-.72-2.03-.25-4.11-.5-6.25-.75-2.14-.25-4.34-.51-6.61-.77l-3.57-.41s.04-7.34.06-9.23l.05-5.72c.02-1.92.06-5.97.06-5.97l.14-11.46.16-11.7.18-11.67.29-17.38,1.42-80.02.19-11.57.27-17.45.16-11.62.07-5.78.06-5.73.05-5.66c.02-1.88.06-8.68.06-8.68l54.42-13.5,8.52-2.13,9.58-2.4,9.78-2.47,5.03-1.28,5.16-1.32,5.33-1.38c1.82-.47,3.69-.95,5.62-1.43,1.92-.49,3.9-.98,5.93-1.48l5.04-1.24-.15,10.54-.33,20.2-.27,14.86-.35,17.48-.25,11.57-.23,10.32-3.31.51c-2.06.32-3.99.62-5.83.92-1.84.29-3.58.58-5.24.86-1.98.33-3.47.56-4.83.73l-25.08,3.32-.34,11.37,24.98-2.43c1.09-.1,2.38-.29,3.74-.48l1.48-.21c1.93-.27,3.98-.55,6.18-.84l4.65-.62-.66,23.23-.6,19.88-.46,14.34-.32,9.77-3.65.2c-2.27.13-4.38.25-6.37.37l-.51.03c-1.79.11-3.48.22-5,.22l-9.23-.05-4.48-.02-11.71-.02-.34,11.4,6.5.23,4.57.17,8.54.33,4.25.18c1.08.05,1.99.08,3.02.08.43,0,.88,0,1.35-.02,1.78-.06,3.64-.11,5.61-.17,1.97-.05,4.04-.11,6.25-.15l4.23-.09-.39,11.32-.24,6.56-.44,11.84-.42,10.64-.42,10.01-.43,9.87-.23,5.01-.24,5.12-.25,5.25-.5,9.81-4.37-.66Z"/><path class="cls-5" d="M1163.16,86.87c-.03,1.81-.05,3.6-.08,5.36-.03,1.76-.05,3.5-.08,5.21-.03,1.71-.05,3.41-.08,5.08-.03,1.68-.05,3.33-.08,4.98-.03,1.65-.06,3.28-.08,4.92-.03,1.63-.06,3.26-.09,4.9-.03,1.63-.06,3.28-.09,4.93-.03,1.66-.06,3.33-.09,5.02-.03,1.7-.07,3.42-.1,5.18-.03,1.76-.07,3.56-.11,5.41-.04,1.85-.08,3.75-.12,5.71-.04,1.96-.08,3.99-.13,6.09-.04,2.1-.09,4.27-.14,6.54-.05,2.26-.1,4.62-.16,7.07-2.07.32-4.01.63-5.85.92-1.84.3-3.59.58-5.26.86-1.68.28-3.24.52-4.7.72-1.47.19-2.9.38-4.34.57s-2.86.38-4.31.57c-1.45.19-2.91.38-4.42.58-1.51.2-3.06.4-4.67.62-1.62.21-3.3.44-5.08.67-1.78.24-3.65.48-5.64.75-.06,1.91-.11,3.58-.15,5.14-.05,1.56-.09,3.01-.13,4.46-.04,1.45-.09,2.9-.14,4.48-.05,1.58-.1,3.28-.16,5.24,2.07-.2,4.01-.39,5.83-.57,1.83-.18,3.55-.35,5.2-.51,1.65-.16,3.23-.31,4.78-.46,1.54-.15,3.05-.3,4.54-.44,1.5-.14,2.99-.29,4.5-.43,1.51-.15,3.05-.29,4.64-.45s3.46-.45,5.38-.71c1.93-.27,3.97-.54,6.16-.83-.06,2.12-.12,4.15-.17,6.11-.06,1.96-.11,3.84-.16,5.66-.05,1.82-.1,3.58-.15,5.3-.05,1.72-.1,3.4-.15,5.05s-.1,3.28-.15,4.89c-.05,1.62-.1,3.22-.15,4.84s-.1,3.24-.15,4.89c-.05,1.65-.1,3.33-.16,5.05-.05,1.72-.11,3.48-.17,5.3-.06,1.82-.12,3.7-.18,5.66-.06,1.96-.13,3.99-.2,6.11-2.28.13-4.39.25-6.39.37-1.92.12-3.73.24-5.26.24-.07,0-.13,0-.19,0-1.57-.01-3.09-.02-4.58-.03-1.49,0-2.96-.02-4.44-.02-1.48,0-2.96-.01-4.48-.02-1.52,0-3.08,0-4.71-.01s-3.33,0-5.13,0c-.56,0-1.14,0-1.72,0-1.29,0-2.63,0-4.03,0-.06,1.95-.11,3.65-.16,5.22-.05,1.57-.09,3.02-.13,4.47-.04,1.45-.09,2.89-.13,4.44-.05,1.56-.1,3.23-.15,5.13,1.95.06,3.78.12,5.51.18,1.74.06,3.38.12,4.96.18,1.58.06,3.09.11,4.57.17,1.47.06,2.9.11,4.32.17,1.41.06,2.81.11,4.21.17,1.4.06,2.81.12,4.24.18,1.02.04,2.05.08,3.2.08.47,0,.96,0,1.47-.02,1.78-.06,3.63-.11,5.59-.17,1.96-.05,4.03-.11,6.23-.15-.08,2.46-.17,4.82-.25,7.09-.08,2.27-.16,4.45-.24,6.56-.08,2.11-.15,4.13-.23,6.1-.07,1.97-.15,3.87-.22,5.73-.07,1.86-.14,3.66-.21,5.43-.07,1.77-.14,3.5-.21,5.2-.07,1.7-.14,3.38-.21,5.04-.07,1.66-.14,3.31-.21,4.95-.07,1.64-.14,3.28-.21,4.92-.07,1.64-.14,3.28-.22,4.94-.07,1.66-.15,3.32-.23,5.01-.08,1.68-.16,3.39-.24,5.11-.08,1.72-.17,3.47-.25,5.24-.09,1.77-.18,3.57-.27,5.39-2.25-.34-4.42-.66-6.51-.97-2.1-.31-4.22-.6-6.01-.88-1.8-.29-3.56-.56-5.3-.84-1.74-.27-3.45-.54-5.14-.8-1.69-.26-3.36-.51-5.01-.76-1.65-.25-3.29-.49-4.91-.73s-3.23-.48-4.83-.71c-1.6-.23-3.2-.46-4.79-.69-1.59-.23-3.18-.45-4.77-.68-1.59-.22-3.19-.45-4.79-.67-1.61-.22-3.22-.44-4.85-.67-1.63-.22-3.27-.44-4.94-.67-1.67-.22-3.35-.45-5.06-.67-1.71-.23-3.45-.45-5.23-.68-1.77-.23-3.58-.46-5.43-.69-1.85-.23-3.73-.47-5.67-.71-1.93-.24-3.91-.48-5.95-.73-2.03-.25-4.12-.49-6.27-.75-2.15-.25-4.35-.51-6.63-.77.01-1.86.02-3.74.04-5.63s.03-3.8.05-5.72.04-3.84.06-5.77c.02-1.93.04-3.87.07-5.81.02-1.94.05-3.89.07-5.84.03-1.95.05-3.9.08-5.85.03-1.95.05-3.9.08-5.85.03-1.95.06-3.9.09-5.84.03-1.95.06-3.89.09-5.83.03-1.94.06-3.88.09-5.81.03-1.93.06-3.86.1-5.79.03-1.93.06-3.85.1-5.77s.07-3.84.1-5.75c.03-1.91.07-3.83.1-5.73.03-1.91.07-3.81.1-5.72.03-1.9.07-3.81.1-5.71.03-1.9.07-3.8.1-5.7.03-1.9.07-3.79.1-5.69.03-1.9.07-3.79.1-5.69.03-1.9.07-3.79.1-5.69.03-1.9.07-3.79.1-5.69.03-1.9.07-3.8.1-5.7.03-1.9.07-3.81.1-5.71.03-1.91.07-3.82.1-5.73.03-1.91.07-3.83.1-5.75.03-1.92.07-3.84.1-5.76.03-1.92.07-3.85.1-5.78.03-1.93.06-3.86.1-5.8s.06-3.87.09-5.81.06-3.88.09-5.82c.03-1.94.06-3.88.09-5.83.03-1.94.05-3.88.08-5.82.03-1.94.05-3.88.08-5.81s.05-3.86.07-5.78c.02-1.92.04-3.83.06-5.74.02-1.9.04-3.79.05-5.67.02-1.88.03-3.74.04-5.58,2.27-.56,4.47-1.11,6.62-1.65,2.15-.53,4.24-1.05,6.28-1.56,2.04-.51,4.03-1,5.98-1.48,1.95-.48,3.85-.95,5.71-1.41s3.69-.91,5.48-1.36c1.79-.44,3.55-.88,5.28-1.31,1.73-.43,3.43-.85,5.11-1.27s3.34-.83,4.98-1.24c1.64-.41,3.27-.81,4.88-1.21,1.62-.4,3.22-.8,4.82-1.2,1.6-.4,3.19-.8,4.78-1.19,1.59-.4,3.18-.8,4.78-1.2,1.6-.4,3.2-.8,4.8-1.21,1.61-.4,3.23-.81,4.86-1.23,1.63-.41,3.27-.83,4.93-1.25,1.66-.42,3.34-.85,5.04-1.28,1.7-.43,3.42-.88,5.17-1.32,1.75-.45,3.51-.91,5.33-1.38,1.82-.47,3.68-.95,5.6-1.43,1.92-.48,3.89-.98,5.91-1.48M1157.92,184.43h0M1158.9,263.86h0M1171.31,76.61l-10.07,2.49c-2.04.5-4.02,1-5.95,1.49-1.93.49-3.81.97-5.64,1.44l-2.26.58-3.06.79c-1.74.45-3.46.89-5.16,1.32-1.7.43-3.37.86-5.03,1.28-1.66.42-3.3.84-4.93,1.25-1.63.41-3.24.82-4.85,1.22l-4.8,1.21-4.77,1.2-4.78,1.19-4.81,1.2-4.88,1.21-4.98,1.24-5.11,1.27-5.28,1.31-3.24.8-2.24.55-5.71,1.41-5.98,1.48-6.28,1.56-6.63,1.65-6.03,1.5-.04,6.21c-.01,1.84-.03,3.7-.04,5.57-.02,1.87-.03,3.76-.05,5.66-.02,1.9-.04,3.81-.06,5.73-.02,1.92-.04,3.84-.07,5.77-.02,1.93-.05,3.86-.08,5.8l-.08,5.82-.09,5.82-.09,5.82-.09,5.81-.1,5.79-.1,5.78-.1,5.76-.1,5.74-.1,5.73-.1,5.71-.1,5.7v.56s-.1,5.13-.1,5.13l-.06,3.5-.04,2.19-.07,3.64-.04,2.04-.1,5.69-.1,5.7-.1,5.71-.1,5.72-.1,5.74-.1,5.76-.1,5.78-.1,5.79-.09,5.81-.09,5.83-.09,5.85-.08,5.85c-.03,1.95-.05,3.9-.08,5.85-.03,1.95-.05,3.9-.07,5.84-.02,1.95-.05,3.89-.07,5.82-.02,1.94-.04,3.87-.06,5.78-.02,1.92-.04,3.83-.05,5.73-.02,1.9-.03,3.78-.04,5.65l-.04,7.18,7.13.82c2.26.26,4.46.52,6.6.77,2.14.25,4.22.5,6.24.74,2.03.24,4,.49,5.92.72,1.93.24,3.81.47,5.65.71,1.84.23,3.64.46,5.41.69,1.77.23,3.5.45,5.21.68,1.71.22,3.39.45,5.05.67,1.66.22,3.3.44,4.92.67,1.62.22,3.23.44,4.83.66,1.6.22,3.19.44,4.78.67,1.59.22,3.17.45,4.76.68,1.59.23,3.17.46,4.77.69,1.6.23,3.2.47,4.81.71,1.62.24,3.24.48,4.89.73,1.65.25,3.31.5,4.99.76,1.68.26,3.39.52,5.12.79,1.73.27,3.49.55,5.28.83,1.21.19,2.56.39,3.96.59.71.1,1.43.2,2.14.31,2.09.31,4.24.63,6.48.97l8.74,1.33.45-8.83c.09-1.83.18-3.63.27-5.41.09-1.78.17-3.53.25-5.26.08-1.73.16-3.43.24-5.12.08-1.69.15-3.36.23-5.02.07-1.66.15-3.31.22-4.95.07-1.64.14-3.28.21-4.93.07-1.64.14-3.3.21-4.96l.21-5.05c.07-1.71.14-3.44.21-5.21.07-1.77.14-3.58.21-5.44.07-1.86.14-3.76.22-5.73.07-1.97.15-4,.23-6.11.08-2.11.16-4.29.24-6.56.08-2.27.16-4.63.25-7.1l.29-8.46-8.46.19c-2.22.05-4.3.1-6.27.15-1.97.05-3.84.11-5.63.17-.42.01-.83.02-1.21.02-.95,0-1.82-.03-2.86-.08-1.44-.06-2.85-.12-4.25-.18-1.4-.06-2.8-.11-4.22-.17-1.42-.06-2.85-.11-4.33-.17-1.48-.06-2.99-.11-4.58-.17-.83-.03-1.67-.06-2.53-.09l.05-1.6.06-1.93c1.07,0,2.1,0,3.11,0,1.63,0,3.18,0,4.7.01,1.52,0,3,.01,4.47.02,1.47,0,2.94.01,4.43.02,1.49,0,3,.02,4.57.03h.25c1.65,0,3.41-.11,5.27-.22l.48-.03c1.99-.12,4.09-.25,6.35-.37l7.31-.41.24-7.32.2-6.11.18-5.66.17-5.31.16-5.05.15-4.9.15-4.84.15-4.9.15-5.05.15-5.31.16-5.66.17-6.11.26-9.39-9.31,1.23c-2.21.29-4.26.57-6.2.84-.5.07-1,.14-1.49.21-1.32.19-2.56.37-3.56.46l-4.64.45-4.5.44-4.55.44-4.78.46-1.99.19.02-.63.08-2.8,3.98-.53,4.67-.62,2-.26,2.42-.32,4.31-.57,4.34-.57c1.4-.19,2.93-.42,4.96-.75,1.66-.28,3.4-.56,5.22-.85,1.83-.29,3.76-.6,5.81-.91l6.62-1.03.15-6.7c.06-2.46.11-4.81.16-7.08l.14-6.54.13-6.09.12-5.71.11-5.41.1-5.19.09-5.03.09-4.94.09-4.9.08-4.92.08-4.98.08-5.09.08-5.22.08-5.36.15-10.37h0ZM1163.16,94.87h0,0ZM1157.92,176.43h0,0ZM1158.91,255.86h0,0Z"/><path class="cls-7" d="M1339.41,381.21c-2.03-.53-4-1.04-5.91-1.53-1.91-.49-3.76-.96-5.56-1.41-1.8-.45-3.55-.89-5.26-1.31s-3.38-.83-5.03-1.23c-1.64-.4-3.26-.79-4.85-1.17-1.59-.38-3.17-.76-4.73-1.13-1.56-.37-3.12-.73-4.68-1.1-1.56-.36-3.11-.72-4.68-1.08s-3.15-.72-4.75-1.08c-1.6-.36-3.23-.73-4.88-1.09-1.66-.37-3.34-.74-5.08-1.12-1.73-.38-3.5-.76-5.33-1.16-1.83-.39-3.7-.79-5.64-1.2s-3.94-.83-6.02-1.26l-3.75-.78.62-3.78c.31-1.92.59-3.74.84-5.49.25-1.74.47-3.41.68-5.02.2-1.62.39-3.18.56-4.72.17-1.54.33-3.06.49-4.58.15-1.53.3-3.06.43-4.64.14-1.58.27-3.2.4-4.89.13-1.69.25-3.46.37-5.33.05-.74.09-1.49.14-2.26-.49-.06-4.42-.52-5.85-.68,0,0-5.21-.59-5.63-.64-.12.93-.25,1.83-.37,2.7-.29,2.05-.57,3.96-.85,5.79-.28,1.83-.56,3.58-.84,5.29s-.57,3.39-.88,5.08c-.3,1.69-.62,3.39-.96,5.13-.34,1.75-.7,3.55-1.09,5.45-.4,1.89-.83,3.88-1.31,5.98l-.86,3.77-3.79-.74c-2.18-.42-4.26-.82-6.28-1.2-2.01-.38-3.95-.74-5.82-1.09-1.87-.35-3.69-.68-5.45-1-1.76-.32-3.48-.63-5.16-.93-1.68-.3-3.32-.59-4.94-.88-1.62-.28-3.21-.56-4.8-.84-1.58-.27-3.15-.54-4.73-.81-1.57-.27-3.15-.53-4.73-.8-1.59-.26-3.19-.53-4.81-.8-1.63-.27-3.27-.54-4.96-.81s-3.4-.54-5.16-.82c-1.76-.28-3.57-.56-5.43-.85-1.86-.29-3.78-.58-5.76-.88l-4.06-.61.72-4.05c.33-1.83.65-3.68.96-5.54.32-1.86.63-3.74.94-5.63.31-1.89.61-3.79.92-5.7.3-1.91.6-3.83.89-5.76.29-1.93.58-3.87.87-5.8.28-1.94.56-3.88.84-5.83.28-1.95.55-3.9.81-5.86.27-1.95.53-3.91.79-5.87.26-1.95.51-3.91.76-5.87s.5-3.92.74-5.87c.24-1.96.48-3.91.72-5.87.23-1.95.47-3.9.69-5.85.23-1.95.45-3.9.67-5.84.22-1.95.44-3.89.65-5.83.21-1.94.42-3.88.63-5.82.21-1.94.41-3.87.61-5.8.2-1.93.4-3.86.6-5.79.2-1.93.39-3.86.58-5.78.19-1.92.38-3.85.56-5.77.18-1.92.37-3.84.55-5.76.18-1.92.36-3.83.53-5.75.18-1.92.35-3.83.52-5.74.17-1.91.34-3.83.51-5.74l.5-5.74.48-5.74c.16-1.91.32-3.83.47-5.74.16-1.92.31-3.83.46-5.74.15-1.92.31-3.83.46-5.75l.45-5.76.44-5.77.44-5.78,1.29-17.4,1.71-23.28.43-5.82c.15-1.94.29-3.87.44-5.8.15-1.93.3-3.86.45-5.78.15-1.92.31-3.84.46-5.75.16-1.91.31-3.81.48-5.71.16-1.89.33-3.78.49-5.65.17-1.88.34-3.74.52-5.59.18-1.85.36-3.68.54-5.5l.29-2.85,2.8-.64c2.02-.46,4-.91,5.93-1.34,1.93-.43,3.83-.85,5.68-1.26,1.86-.41,3.68-.8,5.46-1.19s3.54-.76,5.27-1.13c1.73-.37,3.42-.72,5.1-1.07s3.33-.69,4.97-1.03c1.63-.34,3.25-.66,4.85-.99,1.6-.32,3.19-.64,4.78-.96,1.58-.31,3.15-.62,4.72-.93s3.14-.61,4.71-.91c1.57-.3,3.14-.6,4.72-.9,1.58-.3,3.16-.6,4.76-.9,1.6-.3,3.2-.6,4.83-.89,1.62-.3,3.27-.6,4.93-.9,1.66-.3,3.35-.6,5.06-.91,1.72-.31,3.46-.61,5.23-.92,1.78-.31,3.58-.62,5.43-.94,1.85-.32,3.73-.64,5.66-.96,1.93-.32,3.9-.65,5.92-.99,2.02-.33,4.09-.67,6.21-1.02l3.99-.65.6,4c.24,1.6.49,3.21.75,4.83.26,1.62.53,3.26.8,4.91.28,1.65.56,3.31.85,4.97.29,1.67.59,3.35.89,5.03.3,1.69.61,3.38.93,5.08.32,1.7.64,3.41.96,5.13.33,1.71.65,3.44.99,5.16.33,1.73.67,3.46,1.01,5.2.34,1.73.68,3.48,1.02,5.22.34,1.75,2.09,10.5,2.09,10.5l4.51,22.56,1.84,9.28c.35,1.78.7,3.56,1.05,5.34.35,1.78.69,3.56,1.04,5.35.35,1.78.69,3.57,1.03,5.36.34,1.79.68,3.58,1.02,5.37.34,1.79.67,3.59,1.01,5.39.33,1.79.67,3.59.99,5.39.33,1.8.65,3.61.98,5.41.32,1.81.64,3.61.96,5.43s.63,3.63.94,5.45c.31,1.82.62,3.64.92,5.47.3,1.83.61,3.66.9,5.49.3,1.83.59,3.67.88,5.52.29,1.84.57,3.69.86,5.54.28,1.85.56,3.71.83,5.58.27,1.86.54,3.73.8,5.61.26,1.88.52,3.76.77,5.65.25,1.89.5,3.78.74,5.69.24,1.9.48,3.81.7,5.73.23,1.92.45,3.84.67,5.77.22,1.93.42,3.87.63,5.82.2,1.95.4,3.91.58,5.87.19,1.97.37,3.94.54,5.92.17,1.98.33,3.97.49,5.97.15,2,.3,4.01.43,6.03.13,2.02.26,4.05.37,6.09.11,2.04.21,4.09.3,6.15.09,2.06.17,4.13.23,6.21.07,2.08.12,4.17.16,6.28.04,2.1.06,4.22.07,6.34,0,2.13,0,4.26-.02,6.41-.02,2.15-.06,4.31-.12,6.48-.06,2.17-.13,4.35-.23,6.54-.09,2.19-.21,4.4-.34,6.61-.14,2.22-.29,4.44-.47,6.68-.18,2.27-.39,4.54-.61,6.75-.23,2.25-.49,4.54-.77,6.81-.28,2.27-.59,4.58-.93,6.87-.34,2.33-.72,4.66-1.12,6.93-.41,2.35-.85,4.7-1.31,6.99l-.84,4.15-4.1-1.07ZM1262.13,185.1c.03,1.68.05,3.35.07,5.02.02,1.67.04,3.34.06,5.01.02,1.67.03,3.35.04,5.05s.02,3.42.03,5.16c0,1.74.01,3.51.02,5.32,0,1.81,0,3.65,0,5.54,0,1.89-.01,3.83-.03,5.82-.01,1.99-.03,4.04-.05,6.16,0,.81-.02,1.63-.03,2.46.11,0,4.3-.01,4.3-.01-.05-.79-.11-1.57-.16-2.34-.15-2.13-.3-4.19-.45-6.19-.15-2-.3-3.95-.45-5.85-.15-1.9-.3-3.75-.45-5.57-.15-1.81-.3-3.59-.45-5.34-.15-1.75-.3-3.47-.45-5.18-.15-1.7-.3-3.39-.46-5.07-.15-1.68-.31-3.35-.46-5.02l-.48-5.03s-.65-6.66-.73-7.45c0,0,.1,5.83.13,7.51Z"/><path class="cls-5" d="M1308.77,58.57c.24,1.61.49,3.23.76,4.87.26,1.63.53,3.28.81,4.94.28,1.66.56,3.33.86,5,.29,1.68.59,3.36.9,5.06.31,1.69.62,3.4.93,5.1.32,1.71.64,3.42.96,5.14.33,1.72.66,3.45.99,5.18.33,1.73.67,3.47,1.01,5.21.34,1.74.68,3.48,1.03,5.23.34,1.75.69,3.5,1.04,5.25.35,1.75.7,3.51,1.05,5.27.35,1.76.7,3.52,1.06,5.28.35,1.76.71,3.53,1.06,5.29.35,1.77.71,3.53,1.06,5.3.35,1.77.71,3.54,1.06,5.31.35,1.77.71,3.54,1.06,5.32.35,1.77.7,3.55,1.05,5.33.35,1.78.7,3.55,1.05,5.33.35,1.78.69,3.56,1.04,5.34.34,1.78.69,3.57,1.03,5.35.34,1.79.68,3.57,1.02,5.36.34,1.79.67,3.58,1,5.37.33,1.79.66,3.59.99,5.38.33,1.8.65,3.6.98,5.4.32,1.8.64,3.61.96,5.41.32,1.81.63,3.62.94,5.43.31,1.81.62,3.63.92,5.45.3,1.82.6,3.64.9,5.47.3,1.83.59,3.66.88,5.5.29,1.84.57,3.68.85,5.53.28,1.85.56,3.7.83,5.55.27,1.86.54,3.72.8,5.59s.52,3.74.77,5.62.5,3.77.74,5.66c.24,1.89.47,3.79.7,5.7.23,1.91.45,3.82.66,5.74.21,1.92.42,3.85.62,5.79.2,1.94.39,3.88.58,5.83.19,1.95.36,3.91.53,5.88.17,1.97.33,3.95.48,5.94.15,1.99.29,3.98.43,5.99.13,2.01.26,4.02.37,6.05.11,2.03.21,4.06.3,6.11.09,2.04.17,4.1.23,6.16.06,2.06.12,4.14.16,6.23.04,2.09.06,4.18.07,6.29,0,2.11,0,4.22-.02,6.35-.02,2.13-.06,4.27-.12,6.41-.06,2.15-.13,4.31-.22,6.48-.09,2.17-.21,4.35-.34,6.54-.13,2.19-.29,4.39-.47,6.6-.18,2.21-.38,4.43-.61,6.66-.23,2.23-.48,4.47-.76,6.72-.28,2.25-.58,4.51-.92,6.78-.34,2.27-.7,4.55-1.1,6.83-.4,2.29-.83,4.58-1.29,6.88-2.04-.53-4.01-1.04-5.92-1.53-1.91-.49-3.77-.96-5.57-1.42-1.81-.45-3.56-.89-5.28-1.32-1.72-.42-3.39-.84-5.04-1.24-1.65-.4-3.27-.79-4.86-1.17-1.6-.38-3.18-.76-4.75-1.13-1.57-.37-3.13-.74-4.69-1.1-1.56-.36-3.12-.72-4.7-1.08-1.57-.36-3.16-.72-4.77-1.08s-3.23-.73-4.9-1.1c-1.66-.37-3.35-.74-5.09-1.12-1.73-.38-3.51-.77-5.34-1.16-1.83-.39-3.71-.8-5.66-1.21-1.94-.41-3.95-.83-6.03-1.26.32-1.95.6-3.79.85-5.56.25-1.77.48-3.45.69-5.09.21-1.63.4-3.22.57-4.77.18-1.56.34-3.09.49-4.64.15-1.54.3-3.1.44-4.69s.27-3.23.4-4.93c.13-1.71.25-3.49.37-5.38.12-1.89.23-3.89.34-6.04-1.92-.23-3.6-.43-5.16-.61-1.56-.18-3-.35-4.43-.51-1.44-.16-2.87-.33-4.42-.5-1.55-.17-3.22-.36-5.13-.57-.3,2.35-.59,4.52-.87,6.55-.28,2.03-.56,3.93-.84,5.74-.28,1.82-.55,3.55-.84,5.24-.28,1.7-.57,3.36-.87,5.03-.3,1.67-.61,3.35-.94,5.08-.33,1.73-.69,3.51-1.08,5.38-.39,1.87-.82,3.83-1.3,5.91-2.18-.42-4.27-.82-6.29-1.2-2.02-.38-3.96-.75-5.84-1.1-1.88-.35-3.7-.68-5.46-1.01-1.77-.32-3.49-.63-5.17-.93-1.68-.3-3.33-.59-4.95-.88-1.62-.29-3.22-.57-4.81-.84-1.59-.27-3.16-.55-4.74-.81-1.58-.27-3.16-.53-4.75-.8-1.59-.27-3.19-.53-4.82-.8-1.63-.27-3.28-.54-4.97-.81-1.69-.27-3.41-.55-5.18-.82-1.77-.28-3.58-.56-5.45-.85-1.87-.29-3.79-.58-5.77-.88.33-1.84.65-3.7.97-5.57.32-1.87.63-3.76.94-5.66.31-1.9.62-3.81.92-5.73.3-1.92.6-3.85.89-5.78.29-1.94.58-3.88.87-5.82.28-1.95.57-3.9.84-5.85.28-1.95.55-3.91.82-5.87.27-1.96.53-3.92.79-5.88s.51-3.92.77-5.89c.25-1.96.5-3.92.74-5.89.24-1.96.48-3.92.72-5.88.24-1.96.47-3.92.7-5.87.23-1.96.45-3.91.67-5.86.22-1.95.44-3.9.65-5.85.21-1.95.43-3.89.63-5.83.21-1.94.41-3.88.61-5.82.2-1.94.4-3.87.6-5.8s.39-3.86.58-5.79c.19-1.93.38-3.85.56-5.78.19-1.92.37-3.85.55-5.77.18-1.92.36-3.84.53-5.76.18-1.92.35-3.84.52-5.75.17-1.92.34-3.83.51-5.75.17-1.92.33-3.83.5-5.74.16-1.91.32-3.83.48-5.74.16-1.92.32-3.83.47-5.75.16-1.92.31-3.83.47-5.75.15-1.92.31-3.84.46-5.76.15-1.92.3-3.84.45-5.76.15-1.92.3-3.85.44-5.77.15-1.93.29-3.85.44-5.78.15-1.93.29-3.86.43-5.79s.29-3.87.43-5.8c.14-1.94.28-3.87.43-5.81.14-1.94.28-3.88.43-5.82.14-1.94.28-3.88.43-5.82.14-1.94.28-3.88.43-5.82.14-1.94.29-3.88.43-5.82.14-1.94.29-3.88.43-5.81s.29-3.87.44-5.8c.15-1.93.3-3.85.45-5.77.15-1.92.31-3.83.46-5.74.16-1.91.31-3.81.48-5.7.16-1.89.33-3.77.49-5.64.17-1.87.34-3.72.52-5.56.18-1.84.36-3.67.54-5.47,2.01-.46,3.98-.9,5.91-1.34,1.93-.43,3.82-.85,5.67-1.26,1.85-.41,3.67-.8,5.45-1.19s3.53-.76,5.25-1.12c1.72-.37,3.42-.72,5.09-1.07,1.67-.35,3.32-.69,4.95-1.02,1.63-.33,3.24-.66,4.84-.99,1.6-.32,3.19-.64,4.76-.95,1.58-.31,3.15-.62,4.71-.93s3.13-.61,4.69-.91c1.56-.3,3.13-.6,4.7-.9,1.57-.3,3.15-.6,4.75-.89,1.59-.3,3.2-.59,4.82-.89,1.62-.3,3.26-.6,4.92-.9s3.34-.6,5.05-.91,3.45-.61,5.22-.92c1.77-.31,3.58-.62,5.42-.94,1.84-.32,3.72-.64,5.65-.96,1.92-.32,3.89-.65,5.9-.99,2.01-.33,4.08-.67,6.19-1.01M1258.17,234.66c1.68-.01,3.08-.02,4.39-.02s2.53,0,3.84-.01c.94,0,1.92,0,3.02,0,.44,0,.9,0,1.39,0-.15-2.28-.3-4.48-.45-6.62-.15-2.14-.3-4.2-.45-6.21-.15-2.01-.3-3.96-.45-5.87-.15-1.91-.3-3.76-.45-5.58-.15-1.82-.3-3.6-.45-5.36s-.3-3.48-.45-5.19c-.15-1.71-.3-3.4-.46-5.08-.15-1.68-.31-3.35-.47-5.03-.16-1.67-.32-3.35-.48-5.04-.16-1.69-.33-3.38-.49-5.1-.17-1.72-.34-3.45-.52-5.21-.18-1.76-.36-3.55-.54-5.38s-.38-3.69-.58-5.6c-.2-1.91-.4-3.86-.61-5.87-.21-2-.43-4.06-.65-6.17-1.18.11-2.06.2-2.95.28-.88.08-1.77.17-2.94.28.05,2.12.11,4.17.16,6.18.05,2,.1,3.96.14,5.86.04,1.91.09,3.77.12,5.59.04,1.82.08,3.61.11,5.37.03,1.76.07,3.49.1,5.2.03,1.71.06,3.4.08,5.08.03,1.68.05,3.34.07,5.01.02,1.66.04,3.33.06,5,.02,1.67.03,3.35.05,5.04.01,1.7.02,3.41.03,5.15,0,1.74.01,3.51.02,5.31,0,1.8,0,3.64,0,5.53,0,1.89-.01,3.82-.03,5.8-.01,1.99-.03,4.03-.05,6.14-.02,2.11-.05,4.28-.09,6.52M1315.47,49.38l-7.99,1.29c-2.13.34-4.2.68-6.22,1.02-2.02.33-4,.66-5.93.99s-3.82.65-5.67.97c-1.85.32-3.66.63-5.44.94-1.78.31-3.53.62-5.24.93-1.72.31-3.41.61-5.08.91-1.67.3-3.31.6-4.94.9-1.63.3-3.24.6-4.84.9-1.6.3-3.19.6-4.77.9-1.58.3-3.15.6-4.73.9-1.57.3-3.14.61-4.72.92-1.57.31-3.15.62-4.74.93-1.59.31-3.18.63-4.79.96-1.61.32-3.23.65-4.87.99-1.64.34-3.3.68-4.98,1.03-1.68.35-3.38.71-5.12,1.08-1.73.37-3.49.74-5.28,1.13-1.79.39-3.62.78-5.48,1.19-1.86.41-3.76.83-5.7,1.26-1.94.43-3.92.88-5.94,1.34l-5.59,1.28-.59,5.71c-.19,1.83-.37,3.67-.55,5.53-.18,1.86-.35,3.73-.52,5.61-.17,1.88-.33,3.77-.5,5.67-.16,1.9-.32,3.81-.48,5.72-.16,1.91-.31,3.84-.46,5.76-.15,1.92-.3,3.86-.45,5.79-.15,1.93-.3,3.87-.44,5.81-.15,1.94-.29,3.88-.43,5.82l-.43,5.83-.43,5.83-.31,4.22-.12,1.6-.43,5.82-.43,5.81-.43,5.8-.43,5.78c-.14,1.93-.29,3.85-.44,5.77-.15,1.92-.29,3.84-.44,5.76-.15,1.92-.3,3.84-.45,5.75-.15,1.92-.3,3.83-.46,5.75-.15,1.91-.31,3.83-.46,5.74-.16,1.91-.31,3.82-.47,5.73-.16,1.91-.32,3.82-.48,5.73-.16,1.91-.33,3.82-.49,5.73-.17,1.91-.34,3.82-.51,5.73-.17,1.91-.34,3.82-.52,5.73-.18,1.91-.35,3.83-.53,5.74-.18,1.91-.36,3.83-.55,5.75-.18,1.92-.37,3.84-.56,5.76-.19,1.92-.38,3.84-.58,5.77-.2,1.92-.39,3.85-.59,5.78-.2,1.93-.41,3.86-.61,5.79-.21,1.93-.42,3.87-.63,5.81-.21,1.94-.43,3.88-.65,5.82-.22,1.94-.44,3.89-.67,5.83-.23,1.95-.46,3.89-.69,5.84-.23,1.95-.47,3.9-.72,5.85-.24,1.95-.49,3.9-.74,5.85-.25,1.95-.5,3.9-.76,5.85-.26,1.95-.52,3.9-.79,5.85-.27,1.95-.54,3.89-.81,5.84-.27,1.94-.55,3.88-.84,5.81-.28,1.93-.57,3.86-.86,5.78-.29,1.92-.59,3.83-.89,5.74-.3,1.9-.6,3.8-.91,5.68-.31,1.88-.62,3.75-.94,5.61-.32,1.85-.64,3.69-.96,5.51l-1.44,8.09,8.13,1.22c1.97.3,3.89.59,5.74.87,1.86.29,3.66.57,5.42.84,1.76.28,3.47.55,5.15.82,1.68.27,3.32.54,4.94.8,1.62.27,3.22.53,4.8.79,1.58.26,3.15.53,4.72.8,1.57.27,3.14.54,4.72.81,1.58.27,3.17.55,4.78.84,1.61.28,3.25.58,4.93.88,1.67.3,3.38.61,5.14.93,1.76.32,3.57.65,5.44,1,1.87.35,3.8.71,5.81,1.09,2.01.38,4.09.78,6.26,1.2l7.59,1.47,1.73-7.53c.46-2.01.9-3.99,1.33-6.06.38-1.82.74-3.62,1.11-5.51.33-1.73.65-3.43.96-5.19.3-1.7.6-3.4.88-5.13.29-1.77.57-3.52.85-5.34.24-1.57.47-3.11.69-4.69.59.07,1.17.13,1.75.2.69.08,1.38.16,2.08.24-.08,1.26-.17,2.5-.26,3.76-.13,1.67-.26,3.28-.39,4.84-.14,1.56-.28,3.08-.43,4.59-.15,1.51-.31,3.01-.48,4.54-.18,1.59-.36,3.11-.56,4.66-.21,1.69-.43,3.31-.67,4.96-.27,1.85-.54,3.62-.83,5.41l-1.23,7.56,7.5,1.56c2.07.43,4.07.85,6,1.26,1.93.41,3.81.81,5.63,1.2,1.82.39,3.59.78,5.32,1.15,1.72.38,3.41.75,5.06,1.12,1.65.37,3.27.73,4.87,1.09,1.6.36,3.17.72,4.74,1.08,1.56.36,3.12.72,4.67,1.08,1.55.36,3.1.72,4.66,1.09,1.56.37,3.13.74,4.72,1.12,1.59.38,3.2.77,4.84,1.17,1.64.4,3.31.81,5.01,1.23,1.71.42,3.45.86,5.25,1.31,1.8.45,3.64.92,5.54,1.41,1.9.49,3.86.99,5.89,1.52l8.19,2.14,1.68-8.3c.47-2.32.92-4.71,1.33-7.1.4-2.31.78-4.67,1.13-7.03.34-2.29.66-4.63.95-6.97.28-2.27.54-4.59.78-6.9.23-2.24.44-4.54.62-6.83.18-2.22.34-4.49.48-6.76.13-2.2.25-4.45.35-6.68.09-2.17.17-4.4.23-6.61.06-2.15.1-4.35.12-6.54.02-2.13.03-4.3.02-6.47,0-2.1-.03-4.26-.07-6.4-.04-2.09-.09-4.22-.16-6.33-.06-2.06-.14-4.16-.24-6.26-.09-2.05-.19-4.13-.31-6.2-.11-2.02-.24-4.08-.37-6.13-.13-2.03-.28-4.06-.43-6.07-.15-2.01-.32-4.02-.49-6.01-.17-1.99-.35-3.98-.54-5.96-.19-1.98-.38-3.94-.59-5.9-.2-1.96-.41-3.91-.63-5.85-.22-1.94-.44-3.88-.67-5.8-.23-1.93-.47-3.84-.71-5.75-.24-1.91-.49-3.81-.74-5.71-.25-1.9-.51-3.79-.78-5.67-.26-1.88-.53-3.76-.81-5.63-.27-1.87-.55-3.74-.83-5.6-.28-1.86-.57-3.72-.86-5.57-.29-1.85-.58-3.7-.88-5.54-.3-1.84-.6-3.68-.91-5.51-.31-1.83-.61-3.66-.93-5.48-.31-1.82-.63-3.64-.95-5.46-.32-1.82-.64-3.63-.96-5.44-.32-1.81-.65-3.62-.98-5.42-.33-1.8-.66-3.61-.99-5.41-.33-1.8-.67-3.6-1.01-5.39-.34-1.8-.68-3.59-1.02-5.38-.34-1.79-.69-3.58-1.03-5.37-.35-1.79-.69-3.57-1.04-5.36-.35-1.78-.7-3.57-1.05-5.35-.35-1.78-.7-3.56-1.06-5.34-.35-1.78-.71-3.55-1.06-5.33l-1.06-5.31-1-5.01-.06-.3-1.06-5.29-1.05-5.28-1.05-5.26c-.35-1.75-.69-3.49-1.04-5.24-.34-1.74-.68-3.48-1.02-5.21-.34-1.73-.67-3.46-1.01-5.19-.33-1.72-.66-3.44-.98-5.15-.32-1.71-.64-3.41-.96-5.11-.31-1.7-.62-3.39-.93-5.07-.3-1.68-.6-3.35-.89-5.01-.29-1.66-.57-3.31-.85-4.95-.27-1.64-.54-3.26-.8-4.88-.26-1.61-.51-3.21-.74-4.79l-1.2-8h0Z"/><path class="cls-7" d="M1494,433.88c-1.56-.9-3.08-1.75-4.58-2.56-1.5-.82-2.97-1.6-4.42-2.35-1.45-.75-2.88-1.47-4.29-2.18-1.42-.7-2.82-1.39-4.22-2.06-1.4-.67-2.8-1.33-4.22-1.98-1.41-.65-2.83-1.29-4.28-1.94-1.45-.65-2.93-1.29-4.45-1.95-1.52-.66-3.09-1.32-4.72-1.99-1.63-.67-3.32-1.37-5.09-2.08-1.77-.71-3.63-1.44-5.58-2.2-1.96-.76-4.02-1.54-6.21-2.36l-3.36-1.25.89-3.48c.54-2.13,1.06-4.27,1.54-6.38.46-2,.9-4.05,1.32-6.09.41-1.98.78-3.92,1.13-5.83.35-1.9.67-3.77.96-5.6.3-1.84.57-3.64.83-5.41.25-1.78.49-3.53.7-5.26.21-1.73.41-3.44.59-5.13.18-1.7.35-3.38.5-5.05.15-1.67.29-3.34.41-5,.12-1.66.24-3.32.33-4.99.1-1.67.19-3.33.26-5.01s.14-3.36.19-5.07c.05-1.7.09-3.42.12-5.16.03-1.74.04-3.5.04-5.29,0-1.77,0-3.56-.03-5.38-.14,1.86-.3,3.69-.46,5.49-.17,1.85-.35,3.68-.54,5.48-.19,1.8-.39,3.58-.6,5.35-.21,1.76-.43,3.51-.67,5.25-.24,1.74-.48,3.47-.74,5.2-.26,1.73-.53,3.46-.82,5.19-.29,1.73-.59,3.47-.91,5.22s-.65,3.51-1.01,5.29c-.35,1.78-.73,3.58-1.12,5.41s-.81,3.67-1.26,5.56c-.45,1.88-.92,3.8-1.42,5.75-.5,1.95-1.03,3.94-1.6,5.98-.58,2.08-1.19,4.18-1.82,6.24-.67,2.2-1.37,4.4-2.07,6.54l-1.27,3.85-3.84-1.33c-1.83-.63-3.6-1.24-5.33-1.82-1.72-.58-3.4-1.14-5.04-1.68-1.64-.54-3.24-1.06-4.81-1.56-1.57-.51-3.11-.99-4.63-1.47-1.52-.48-3.01-.95-4.5-1.41-1.49-.46-2.96-.91-4.44-1.36-1.48-.45-2.96-.89-4.45-1.34-1.49-.44-2.99-.89-4.52-1.33-1.53-.45-3.08-.9-4.67-1.35s-3.21-.92-4.88-1.39c-1.67-.47-3.39-.95-5.17-1.44-1.78-.49-3.62-1-5.54-1.51-1.92-.52-3.91-1.05-5.99-1.6l-3.88-1.03,1.04-3.88c.6-2.24,1.19-4.55,1.74-6.87.54-2.26,1.07-4.56,1.55-6.83.48-2.23.94-4.51,1.37-6.78.42-2.23.83-4.49,1.21-6.74.37-2.2.72-4.45,1.05-6.68.33-2.22.63-4.43.91-6.63.28-2.2.54-4.39.78-6.57.24-2.18.46-4.35.66-6.52.2-2.16.38-4.32.54-6.46.16-2.14.31-4.28.44-6.4.13-2.12.24-4.24.34-6.34.1-2.1.18-4.2.25-6.28.07-2.08.12-4.16.16-6.23.04-2.06.07-4.12.08-6.17.02-2.05.02-4.09.01-6.12,0-2.03-.03-4.05-.06-6.06-.03-2.01-.07-4.02-.12-6.01s-.11-3.98-.18-5.96c-.07-1.98-.14-3.95-.23-5.91-.08-1.96-.18-3.92-.28-5.87-.1-1.95-.21-3.89-.33-5.82-.12-1.93-.24-3.86-.37-5.78-.13-1.92-.27-3.83-.41-5.74-.14-1.91-.29-3.81-.45-5.7-.16-1.89-.32-3.78-.49-5.67-.17-1.88-.34-3.76-.52-5.63-.18-1.88-.36-3.74-.55-5.61-.19-1.87-.38-3.73-.58-5.58-.2-1.86-.4-3.71-.61-5.56-.21-1.85-.42-3.69-.63-5.53-.21-1.84-.43-3.68-.65-5.51-.22-1.84-.45-3.67-.68-5.5-.23-1.83-.46-3.66-.69-5.48-.24-1.83-.47-3.65-.71-5.47-.24-1.82-.48-3.64-.73-5.46-.25-1.82-.49-3.63-.74-5.44-.25-1.81-.5-3.63-.76-5.44l-.77-5.43-.78-5.42-1.57-10.82-2.37-16.19-.78-5.38-.77-5.37c-.25-1.79-.51-3.58-.76-5.36-.25-1.79-.5-3.57-.74-5.35-.24-1.78-.48-3.56-.72-5.33-.24-1.78-.47-3.55-.69-5.31-.23-1.77-.45-3.53-.66-5.29-.21-1.76-.42-3.51-.62-5.26-.2-1.75-.4-3.49-.58-5.23-.19-1.73-.36-3.46-.53-5.18-.17-1.72-.32-3.44-.47-5.14-.15-1.71-.28-3.4-.4-5.08-.12-1.69-.23-3.36-.33-5.02l-.21-3.64,3.61-.54c2.22-.33,4.36-.65,6.44-.95,2.08-.3,4.09-.59,6.04-.88,1.96-.28,3.86-.55,5.71-.81,1.85-.26,3.66-.51,5.43-.76,1.77-.24,3.51-.48,5.22-.71,1.71-.23,3.39-.46,5.06-.68,1.67-.22,3.32-.44,4.96-.65,1.64-.21,3.28-.42,4.92-.63,1.64-.21,3.29-.42,4.94-.62,1.66-.21,3.32-.41,5.01-.62,1.69-.21,3.4-.41,5.14-.62,1.74-.21,3.51-.42,5.33-.63,1.81-.21,3.66-.43,5.57-.64,1.9-.22,3.85-.44,5.85-.66,2-.22,4.07-.45,6.2-.68,1.54-.17,3.05-.29,4.51-.37,1.38-.08,2.75-.12,4.06-.12h.27c1.42,0,2.82.06,4.17.15,1.37.1,2.72.25,4.01.44,1.31.2,2.6.45,3.85.74,1.26.3,2.5.66,3.7,1.06,1.21.41,2.4.88,3.54,1.4,1.15.52,2.29,1.11,3.37,1.75,1.09.64,2.17,1.35,3.2,2.1,1.03.76,2.05,1.58,3.03,2.46.97.87,1.93,1.82,2.86,2.82.92.99,1.82,2.06,2.7,3.19.86,1.11,1.72,2.31,2.56,3.56.82,1.23,1.64,2.56,2.43,3.94.78,1.35,1.57,2.81,2.33,4.34.76,1.51,1.52,3.11,2.25,4.76.74,1.65,1.47,3.4,2.19,5.2.72,1.8,1.44,3.71,2.15,5.67.71,1.97,1.42,4.05,2.12,6.17.7,2.13,1.41,4.39,2.11,6.69.7,2.3,1.41,4.74,2.11,7.24.71,2.52,1.42,5.15,2.11,7.83.7,2.7,1.42,5.53,2.12,8.43.71,2.92,1.43,5.97,2.13,9.07.73,3.22,1.45,6.5,2.14,9.74.72,3.4,1.44,6.91,2.13,10.43.72,3.65,1.43,7.4,2.1,11.14.5,2.77.98,5.5,1.43,8.19.45,2.69.88,5.34,1.29,7.94.4,2.6.78,5.17,1.13,7.68.35,2.52.68,4.99.98,7.42.3,2.43.58,4.81.83,7.15.25,2.34.47,4.64.67,6.89.2,2.25.37,4.46.52,6.62.15,2.14.27,4.27.37,6.35.1,2.08.17,4.12.22,6.08.05,1.96.07,3.92.07,5.82,0,1.86-.02,3.73-.07,5.56-.05,1.78-.12,3.56-.21,5.3-.09,1.72-.21,3.42-.35,5.06-.14,1.64-.3,3.25-.48,4.81-.18,1.54-.39,3.08-.62,4.57-.23,1.49-.48,2.96-.75,4.35-.27,1.41-.57,2.8-.88,4.12-.31,1.31-.64,2.63-1,3.91-.35,1.25-.73,2.5-1.13,3.7-.28.85-.58,1.69-.88,2.51.26,1.86.51,3.69.75,5.5.28,2.14.54,4.25.79,6.33.24,2.08.47,4.13.68,6.16s.4,4.02.58,5.99c.18,1.97.34,3.92.49,5.84.15,1.93.28,3.83.4,5.71.12,1.88.22,3.75.31,5.59.09,1.85.17,3.67.23,5.48.06,1.81.12,3.61.15,5.4.04,1.79.06,3.56.08,5.32.01,1.77.01,3.52,0,5.27-.01,1.75-.04,3.49-.07,5.22-.04,1.74-.09,3.47-.15,5.2-.06,1.73-.14,3.46-.22,5.19-.09,1.73-.19,3.47-.3,5.21-.11,1.74-.24,3.48-.39,5.23-.14,1.75-.3,3.51-.48,5.28-.17,1.77-.36,3.54-.57,5.34-.21,1.79-.43,3.6-.67,5.42-.24,1.82-.5,3.66-.78,5.51-.28,1.86-.58,3.73-.9,5.63-.32,1.9-.66,3.81-1.03,5.76-.37,1.94-.76,3.91-1.18,5.91-.42,1.99-.86,4.02-1.34,6.07-.49,2.09-1,4.2-1.52,6.26-.55,2.15-1.13,4.33-1.73,6.46-.62,2.23-1.28,4.48-1.95,6.68-.7,2.3-1.45,4.63-2.21,6.91l-1.55,4.65-4.24-2.45ZM1432.19,137.41l.95,5.26.92,5.11.89,5.02.87,5c.29,1.67.58,3.35.87,5.04.29,1.7.58,3.41.87,5.15.29,1.74.58,3.51.88,5.32.3,1.81.6,3.67.9,5.57.3,1.91.61,3.87.93,5.9.31,2.03.63,4.12.96,6.29.17,1.13.34,2.27.51,3.45.33-.02.61-.07.84-.15.26-.09.46-.23.66-.45.3-.34.58-.84.82-1.49.32-.86.57-1.94.73-3.23.19-1.42.28-3.1.27-4.99,0-1.96-.11-4.21-.32-6.68-.21-2.5-.53-5.3-.96-8.33-.42-3.03-.96-6.38-1.6-9.96-.63-3.53-1.27-6.83-1.91-9.82-.63-2.93-1.27-5.62-1.91-7.99-.63-2.34-1.27-4.45-1.92-6.27-.62-1.77-1.27-3.33-1.92-4.64-.6-1.23-1.23-2.27-1.85-3.1-.54-.72-1.09-1.3-1.64-1.71-.35-.27-.71-.47-1.08-.62l2.24,12.31Z"/><path class="cls-5" d="M1442.05,41.44c.08,0,.16,0,.24,0,1.33,0,2.63.05,3.9.14,1.27.09,2.5.23,3.7.41,1.2.18,2.37.41,3.51.68,1.14.27,2.25.59,3.34.96,1.08.37,2.14.79,3.17,1.25,1.03.47,2.03.99,3.01,1.56.98.57,1.93,1.2,2.86,1.88.93.68,1.83,1.42,2.72,2.21.88.8,1.75,1.65,2.59,2.56.84.91,1.67,1.89,2.48,2.93.81,1.04,1.6,2.14,2.38,3.31.78,1.17,1.54,2.41,2.3,3.72.75,1.31,1.49,2.69,2.23,4.14.73,1.45,1.46,2.98,2.17,4.59.72,1.61,1.43,3.29,2.13,5.06.7,1.77,1.4,3.61,2.1,5.55.7,1.93,1.39,3.95,2.09,6.06.69,2.11,1.39,4.31,2.08,6.6.69,2.29,1.39,4.68,2.08,7.17.7,2.49,1.39,5.07,2.09,7.76.7,2.69,1.4,5.48,2.11,8.37.7,2.9,1.41,5.9,2.12,9.01.71,3.11,1.42,6.34,2.12,9.68.71,3.34,1.41,6.8,2.12,10.37.7,3.57,1.4,7.27,2.09,11.08.5,2.75.97,5.47,1.42,8.14.45,2.67.88,5.3,1.28,7.89.4,2.59.78,5.13,1.13,7.62.35,2.5.67,4.95.97,7.36.3,2.41.57,4.77.82,7.09s.47,4.59.66,6.81.37,4.4.51,6.54c.15,2.13.27,4.22.36,6.26.1,2.04.17,4.04.21,5.99.05,1.95.07,3.86.07,5.72,0,1.86-.03,3.68-.07,5.46-.05,1.77-.12,3.5-.21,5.19-.09,1.69-.21,3.33-.34,4.93-.14,1.6-.29,3.16-.47,4.68s-.38,3-.6,4.44c-.22,1.44-.46,2.84-.72,4.2-.26,1.36-.54,2.68-.84,3.96-.3,1.28-.62,2.53-.96,3.74s-.7,2.38-1.07,3.52-.77,2.24-1.19,3.31c.32,2.19.61,4.35.89,6.47s.54,4.22.78,6.28c.24,2.06.47,4.1.67,6.1s.4,3.99.58,5.94.34,3.88.48,5.79c.15,1.91.28,3.79.39,5.65.12,1.86.22,3.71.31,5.53.09,1.83.17,3.64.23,5.43.06,1.79.11,3.57.15,5.34.04,1.77.06,3.52.08,5.27.01,1.74.01,3.48,0,5.21-.01,1.73-.04,3.45-.07,5.17-.04,1.72-.09,3.43-.15,5.14-.06,1.71-.14,3.42-.22,5.13-.09,1.71-.19,3.43-.3,5.14s-.24,3.44-.38,5.17c-.14,1.73-.3,3.47-.47,5.21-.17,1.75-.36,3.5-.56,5.27-.2,1.77-.42,3.55-.66,5.35-.24,1.8-.49,3.61-.77,5.44-.28,1.83-.57,3.68-.89,5.55s-.66,3.77-1.02,5.68c-.36,1.92-.75,3.86-1.16,5.83-.41,1.97-.85,3.97-1.32,5.99-.47,2.03-.97,4.08-1.5,6.17-.53,2.09-1.1,4.21-1.7,6.37-.6,2.16-1.24,4.35-1.93,6.59-.68,2.23-1.41,4.5-2.18,6.82-1.58-.91-3.14-1.78-4.66-2.61s-3.02-1.62-4.49-2.39c-1.47-.76-2.92-1.5-4.36-2.21-1.44-.71-2.86-1.4-4.28-2.08-1.42-.68-2.84-1.34-4.27-2-1.43-.66-2.87-1.31-4.34-1.96-1.47-.65-2.96-1.3-4.5-1.96s-3.12-1.33-4.76-2.01c-1.64-.68-3.35-1.38-5.13-2.1-1.79-.72-3.66-1.45-5.63-2.22-1.97-.76-4.05-1.55-6.25-2.38.56-2.21,1.08-4.37,1.57-6.47.48-2.11.93-4.16,1.34-6.18.41-2.01.79-3.98,1.14-5.91.35-1.93.68-3.82.98-5.68.3-1.86.58-3.69.84-5.49s.49-3.58.71-5.33c.22-1.75.42-3.49.6-5.2.18-1.72.35-3.42.51-5.12.15-1.69.29-3.38.42-5.06.13-1.68.24-3.36.34-5.05.1-1.68.19-3.37.26-5.07.08-1.7.14-3.4.19-5.13.05-1.72.09-3.46.12-5.22.03-1.76.04-3.54.04-5.35,0-1.81,0-3.65-.03-5.52-.02-1.87-.06-3.77-.12-5.72-.05-1.94-.12-3.93-.21-5.95-.09-2.03-.19-4.1-.31-6.23-.12-2.12-.26-4.3-.42-6.53-1.15-.19-2.01-.33-2.88-.47-.87-.14-1.73-.28-2.89-.46-.04,2.3-.1,4.54-.17,6.73-.07,2.18-.15,4.31-.25,6.38-.1,2.08-.21,4.1-.33,6.08s-.26,3.92-.4,5.82c-.14,1.9-.3,3.77-.47,5.6-.17,1.84-.34,3.64-.53,5.42-.19,1.78-.39,3.54-.59,5.29-.21,1.74-.43,3.47-.66,5.19-.23,1.72-.48,3.43-.73,5.14-.26,1.71-.53,3.42-.81,5.13-.28,1.71-.58,3.43-.9,5.16-.31,1.73-.65,3.47-.99,5.23-.35,1.76-.72,3.54-1.11,5.34-.39,1.8-.8,3.63-1.24,5.49-.44,1.86-.9,3.75-1.4,5.67-.49,1.93-1.02,3.89-1.58,5.89-.56,2.01-1.16,4.06-1.79,6.15-.64,2.1-1.31,4.25-2.04,6.45-1.84-.64-3.62-1.25-5.36-1.83-1.74-.59-3.42-1.15-5.07-1.69-1.65-.54-3.26-1.07-4.83-1.57-1.58-.51-3.12-1-4.65-1.48-1.53-.48-3.03-.95-4.52-1.41s-2.98-.92-4.46-1.37c-1.48-.45-2.97-.9-4.47-1.34-1.5-.45-3.01-.89-4.54-1.34s-3.09-.9-4.68-1.36c-1.59-.46-3.22-.92-4.9-1.39-1.68-.47-3.41-.95-5.19-1.45-1.79-.49-3.64-1-5.56-1.52-1.92-.52-3.92-1.05-6.01-1.61.62-2.33,1.21-4.65,1.77-6.97.56-2.32,1.08-4.62,1.57-6.92.49-2.3.96-4.59,1.39-6.87.43-2.28.84-4.56,1.22-6.82.38-2.26.74-4.52,1.07-6.76.33-2.24.64-4.48.92-6.7.28-2.22.55-4.44.79-6.64.24-2.2.46-4.4.66-6.58.2-2.18.38-4.36.55-6.52.16-2.16.31-4.32.44-6.46.13-2.14.24-4.28.34-6.4.1-2.12.18-4.23.25-6.34.07-2.1.12-4.19.17-6.28.04-2.08.07-4.15.09-6.22.02-2.06.02-4.12.01-6.16,0-2.04-.03-4.08-.05-6.1-.03-2.03-.07-4.04-.12-6.05-.05-2.01-.11-4.01-.18-6-.07-1.99-.15-3.97-.23-5.95-.09-1.97-.18-3.94-.28-5.9s-.21-3.91-.33-5.85c-.12-1.94-.24-3.88-.37-5.81-.13-1.93-.27-3.85-.41-5.77-.14-1.92-.3-3.83-.45-5.73s-.32-3.8-.49-5.69-.34-3.78-.52-5.66c-.18-1.88-.36-3.76-.55-5.63-.19-1.87-.38-3.74-.58-5.6-.2-1.86-.4-3.72-.61-5.58-.21-1.85-.42-3.71-.63-5.55s-.43-3.69-.66-5.53c-.22-1.84-.45-3.68-.68-5.51-.23-1.83-.46-3.67-.7-5.5s-.47-3.66-.71-5.48c-.24-1.82-.48-3.65-.73-5.47-.25-1.82-.49-3.64-.75-5.46-.25-1.82-.5-3.63-.76-5.45-.25-1.81-.51-3.63-.77-5.44-.26-1.81-.52-3.62-.78-5.43-.26-1.81-.52-3.61-.78-5.42-.26-1.81-.53-3.61-.79-5.41-.26-1.8-.53-3.6-.79-5.4-.26-1.8-.53-3.6-.79-5.4-.26-1.8-.53-3.59-.79-5.39-.26-1.79-.52-3.59-.78-5.38-.26-1.79-.52-3.58-.77-5.37-.25-1.79-.51-3.57-.76-5.35-.25-1.78-.5-3.56-.74-5.34-.24-1.78-.48-3.55-.72-5.32-.23-1.77-.47-3.53-.69-5.29-.23-1.76-.45-3.51-.66-5.26-.21-1.75-.42-3.49-.62-5.23-.2-1.74-.39-3.47-.58-5.19-.18-1.72-.36-3.44-.53-5.15-.17-1.71-.32-3.41-.47-5.09-.14-1.69-.28-3.37-.4-5.03-.12-1.67-.23-3.32-.32-4.96,2.21-.33,4.35-.65,6.42-.95,2.07-.3,4.08-.59,6.03-.87,1.95-.28,3.85-.55,5.7-.81,1.85-.26,3.66-.51,5.42-.75,1.77-.24,3.5-.48,5.21-.71,1.71-.23,3.39-.46,5.05-.68,1.66-.22,3.31-.44,4.95-.65,1.64-.21,3.28-.42,4.91-.63,1.64-.21,3.28-.42,4.93-.62,1.65-.21,3.32-.41,5-.62s3.39-.41,5.13-.62c1.74-.21,3.51-.42,5.32-.63,1.81-.21,3.66-.43,5.55-.64,1.9-.22,3.84-.44,5.84-.66,2-.22,4.06-.45,6.18-.68,1.47-.16,2.9-.28,4.3-.36,1.31-.07,2.6-.11,3.85-.11M1441.45,198.53c.92,0,1.75-.13,2.5-.41.86-.32,1.61-.82,2.25-1.53.64-.71,1.17-1.63,1.6-2.77.42-1.14.74-2.5.95-4.1.21-1.6.31-3.44.31-5.52,0-2.08-.12-4.42-.34-7-.22-2.59-.55-5.43-.98-8.54-.43-3.11-.98-6.48-1.62-10.11-.65-3.63-1.29-6.94-1.94-9.96-.65-3.02-1.3-5.74-1.96-8.19-.66-2.45-1.33-4.63-2.01-6.56-.68-1.93-1.38-3.62-2.1-5.08-.72-1.46-1.46-2.7-2.24-3.73-.78-1.03-1.58-1.86-2.43-2.5-.85-.64-1.74-1.09-2.67-1.38-.82-.25-1.68-.37-2.58-.37-.13,0-.26,0-.39,0-1.07.04-1.61.06-2.68.1.38,2.07.74,4.08,1.1,6.04.36,1.96.71,3.87,1.04,5.73.34,1.86.67,3.68.99,5.47s.64,3.53.95,5.26c.31,1.72.61,3.42.91,5.11.3,1.68.6,3.35.89,5.02.29,1.66.58,3.32.87,4.99.29,1.67.58,3.34.87,5.03.29,1.69.58,3.4.87,5.13.29,1.74.58,3.5.88,5.31.3,1.81.6,3.65.9,5.56s.61,3.86.92,5.88.63,4.11.95,6.27.65,4.41.98,6.74c1.12.04,1.67.07,2.78.11.14,0,.28,0,.42,0M1442.05,33.44c-1.39,0-2.84.04-4.3.12-1.52.09-3.11.22-4.72.39-2.13.23-4.2.46-6.21.68-2.01.22-3.96.44-5.87.66-1.9.22-3.76.43-5.58.65-1.82.21-3.59.42-5.34.63-1.75.21-3.46.42-5.15.62-1.69.21-3.36.41-5.02.62-1.66.21-3.31.42-4.95.62-1.64.21-3.29.42-4.93.63-1.65.21-3.3.43-4.97.65-1.67.22-3.36.45-5.07.68-1.71.23-3.45.47-5.23.71-1.78.24-3.59.5-5.45.76-1.86.26-3.76.53-5.72.81-1.96.28-3.97.57-6.05.88-2.08.3-4.23.62-6.45.95l-7.22,1.08.42,7.29c.09,1.64.21,3.35.33,5.08.12,1.65.26,3.38.41,5.14.15,1.72.31,3.45.48,5.18.17,1.73.35,3.47.53,5.22.19,1.75.38,3.5.58,5.26.2,1.76.41,3.52.63,5.29.22,1.76.44,3.54.66,5.31.23,1.77.46,3.55.7,5.33.24,1.78.48,3.56.72,5.35.24,1.78.49,3.57.74,5.36.25,1.79.5,3.58.76,5.37.26,1.79.51,3.58.77,5.38.26,1.79.52,3.59.78,5.39l.79,5.39.58,3.98.21,1.42.79,5.4.79,5.41c.26,1.8.52,3.6.78,5.41.26,1.8.52,3.61.78,5.41.26,1.81.51,3.61.77,5.42.25,1.81.51,3.62.76,5.43.25,1.81.5,3.62.74,5.43.25,1.81.49,3.63.73,5.44.24,1.82.48,3.63.71,5.45.23,1.82.47,3.64.69,5.47.23,1.82.45,3.65.67,5.48.22,1.83.44,3.66.65,5.5.21,1.83.42,3.67.63,5.52.21,1.84.41,3.69.6,5.54.2,1.85.39,3.7.58,5.56.19,1.86.37,3.72.55,5.58.18,1.87.35,3.74.52,5.61.17,1.88.33,3.76.48,5.64.16,1.89.3,3.78.45,5.67.14,1.9.28,3.8.41,5.71.13,1.91.25,3.82.37,5.75.12,1.92.22,3.85.33,5.79.1,1.94.19,3.88.28,5.83.08,1.95.16,3.91.23,5.87.07,1.96.13,3.94.17,5.92.05,1.98.09,3.97.12,5.97.03,2,.05,4,.05,6.02,0,2.03,0,4.07-.01,6.07-.02,2.04-.04,4.1-.08,6.12-.04,2.07-.1,4.15-.16,6.17-.07,2.08-.15,4.18-.25,6.23-.1,2.1-.21,4.21-.34,6.28-.13,2.12-.27,4.26-.43,6.34-.16,2.14-.34,4.3-.54,6.39-.2,2.16-.42,4.33-.65,6.45-.24,2.18-.5,4.37-.77,6.5-.28,2.19-.58,4.4-.9,6.55-.32,2.21-.68,4.43-1.04,6.6-.37,2.23-.78,4.46-1.19,6.65-.43,2.25-.88,4.5-1.35,6.69-.48,2.26-1,4.53-1.53,6.73-.55,2.27-1.12,4.55-1.72,6.77l-2.08,7.75,7.76,2.05c2.07.55,4.06,1.08,5.97,1.6,1.91.52,3.75,1.02,5.52,1.51,1.77.49,3.49.97,5.15,1.44,1.67.47,3.28.93,4.86,1.38,1.58.45,3.12.9,4.65,1.35,1.52.44,3.02.89,4.5,1.33,1.48.44,2.96.88,4.43,1.33,1.47.45,2.94.9,4.42,1.35,1.48.46,2.97.92,4.48,1.4,1.51.48,3.04.96,4.6,1.47,1.56.5,3.15,1.02,4.78,1.56,1.63.54,3.3,1.09,5.02,1.67,1.72.58,3.48,1.18,5.3,1.81l6.97,2.42,6.64,2.48c2.08.78,4.15,1.56,6.16,2.34,1.87.72,3.74,1.46,5.54,2.18,1.76.7,3.43,1.39,5.05,2.06,1.61.67,3.16,1.32,4.67,1.97,1.51.65,2.97,1.29,4.41,1.92,1.43.64,2.84,1.27,4.24,1.92,1.41.65,2.81,1.31,4.16,1.95,1.41.67,2.81,1.35,4.16,2.03,1.43.71,2.85,1.43,4.23,2.15,1.48.77,2.94,1.54,4.35,2.31,1.56.85,3.03,1.67,4.49,2.52l8.49,4.9,3.1-9.29c.77-2.32,1.53-4.67,2.24-7.01.68-2.24,1.35-4.52,1.98-6.77.6-2.16,1.19-4.37,1.75-6.55.53-2.09,1.05-4.23,1.54-6.34.47-2.03.93-4.11,1.36-6.16.42-1.98.82-3.99,1.19-5.99.36-1.93.72-3.89,1.05-5.83.32-1.88.63-3.8.91-5.7.28-1.84.54-3.72.79-5.58.24-1.82.47-3.66.68-5.49.2-1.78.4-3.6.58-5.4.17-1.76.33-3.56.48-5.34.14-1.75.27-3.53.39-5.29.12-1.74.22-3.51.31-5.27.09-1.74.16-3.51.23-5.25.06-1.74.11-3.51.15-5.26.04-1.74.06-3.52.07-5.28.01-1.75.01-3.54,0-5.32-.01-1.78-.04-3.59-.08-5.38-.04-1.8-.09-3.63-.15-5.45-.06-1.83-.14-3.7-.23-5.54-.09-1.86-.2-3.76-.32-5.64-.12-1.9-.25-3.84-.4-5.76-.15-1.94-.31-3.93-.49-5.9-.18-2-.38-4.03-.59-6.05-.21-2.05-.44-4.14-.69-6.21-.25-2.11-.51-4.26-.79-6.39-.2-1.51-.4-3.03-.62-4.56.2-.56.39-1.12.58-1.68.42-1.26.81-2.56,1.18-3.88.37-1.32.72-2.69,1.05-4.08.32-1.39.63-2.83.91-4.28.28-1.46.54-2.97.77-4.49.23-1.53.45-3.11.64-4.71.19-1.61.36-3.27.5-4.94.14-1.68.26-3.42.36-5.18.1-1.76.17-3.58.22-5.42.05-1.85.07-3.75.07-5.66,0-1.93-.02-3.92-.07-5.92-.05-2.01-.12-4.08-.22-6.17-.1-2.1-.22-4.27-.37-6.43-.15-2.18-.32-4.43-.52-6.7-.2-2.27-.43-4.61-.68-6.96-.25-2.35-.53-4.78-.83-7.22-.3-2.43-.63-4.95-.99-7.48-.35-2.52-.74-5.12-1.14-7.74-.4-2.59-.84-5.28-1.29-7.99-.45-2.68-.94-5.45-1.44-8.23-.67-3.73-1.39-7.5-2.11-11.2-.69-3.51-1.41-7.04-2.14-10.48-.7-3.31-1.42-6.6-2.15-9.79-.7-3.1-1.43-6.17-2.15-9.13-.71-2.9-1.42-5.76-2.14-8.5-.71-2.71-1.42-5.37-2.13-7.9-.71-2.53-1.42-4.99-2.13-7.32-.71-2.35-1.43-4.63-2.14-6.78-.72-2.18-1.44-4.29-2.16-6.28-.72-2.01-1.46-3.96-2.2-5.8-.74-1.86-1.5-3.66-2.25-5.35-.76-1.71-1.55-3.37-2.33-4.93-.8-1.58-1.62-3.11-2.44-4.53-.84-1.45-1.7-2.85-2.57-4.16-.89-1.33-1.8-2.61-2.73-3.8-.94-1.21-1.92-2.37-2.92-3.44-1.01-1.09-2.06-2.13-3.12-3.08-1.07-.97-2.2-1.88-3.34-2.71-1.14-.84-2.33-1.62-3.54-2.33-1.2-.71-2.46-1.36-3.74-1.94-1.26-.57-2.57-1.09-3.91-1.55-1.31-.44-2.67-.84-4.05-1.17-1.35-.32-2.76-.59-4.19-.81-1.39-.21-2.84-.37-4.31-.47-1.43-.1-2.93-.16-4.44-.16h-.27Z"/><path class="cls-7" d="M182.69,376.14c-8.95,0-17.68-.43-25.96-1.28l-8.36-.86,5.94-5.95c13.8-13.81,28.97-26.99,43.63-39.74,35.02-30.44,71.23-61.91,92.77-105.07l.57-1.15,1.13-.6c18.49-9.82,37.3-19.87,55.49-29.59,16.95-9.06,34.47-18.42,51.72-27.58l11.62-6.17-6.22,11.6c-13.97,26.06-34.65,46.76-54.66,66.79-19.48,19.5-39.57,39.62-53.33,64.66,5.61-.64,10.02-.95,13.58-.95,5.12,0,11.37.55,14.29,4.84,3.26,4.78.81,10.99-2.57,19.57-3.32,8.43-7.46,18.92-8.49,32.28l-.25,3.21-3.19.44c-11.74,1.63-23.73,3.59-35.32,5.49-30.18,4.94-61.38,10.05-92.4,10.05Z"/><path class="cls-5" d="M401.51,167.85c-28.46,53.06-84.55,82.73-111.51,138.28,9.01-1.26,15.73-1.89,20.63-1.89,25.65,0,1.96,17.25-.76,52.38-42.2,5.86-84.58,15.51-127.18,15.51-8.51,0-17.02-.38-25.55-1.26,46.57-46.6,106.12-83.68,137.15-145.85,35.72-18.96,71.45-38.17,107.21-57.17M420.99,148.44l-23.24,12.35c-17.23,9.15-34.73,18.51-51.66,27.55-18.21,9.73-37.04,19.79-55.55,29.62l-2.26,1.2-1.14,2.29c-21.19,42.45-57.1,73.66-91.82,103.84-14.72,12.79-29.93,26.02-43.84,39.93l-11.89,11.89,16.73,1.72c8.41.86,17.28,1.3,26.37,1.3,31.34,0,62.71-5.14,93.05-10.1,11.57-1.89,23.53-3.85,35.23-5.48l6.38-.89.5-6.42c.99-12.76,5-22.94,8.22-31.12,3.69-9.36,6.6-16.76,2.16-23.29-3.98-5.84-11.49-6.59-17.6-6.59-1.85,0-3.91.08-6.23.24,13.06-21.34,30.51-38.81,48.81-57.13,20.21-20.23,41.1-41.15,55.35-67.72l12.44-23.19h0ZM401.51,175.85h0,0Z"/><path class="cls-4" d="M944.41,202.48c-.99-.84-1.94-1.09-3.22-.37-1.11.62-2.47.8-3.68,1.26-.51.19-.93.61-1.56,1.04.67.62,1.11,1.1,1.62,1.51,2.5,2,4.98,4.01,7.53,5.94.82.62,1.36,1.29,1.51,2.33.19,1.32.49,2.62.8,4.2-2.52.33-3.78,2.22-5.26,3.87-.73.82-1.24,1.67-1.15,2.79.1,1.19-.4,1.95-1.5,2.44-.92.41-2,.75-1.94,2.13.08,1.71-.84,3.6.97,4.98.41.31.68.84,1.12,1.08,1.36.73,2.24,1.75,2.66,3.28.15.56.82,1.02,1.34,1.41,1.66,1.25,3.35,2.45,5.5,4-2.33.18-4.15.46-6.02.31-.84-.07-1.69-.08-2.54-.14-.18-.01-.38-.08-.52-.19-1.48-1.27-3.23-.94-4.87-.67-1.73.28-3.26.49-5.11.07-2.44-.54-5.13.02-7.71.11-.5.02-1.05.21-1.48.05-3.13-1.17-6.24-2.4-9.36-3.62-.19-.07-.33-.28-.5-.42,2.46-2.12,3.4-4.9,1.91-6.37q1.65-.85,2.09-2.75c-3.04.53-9.69,4.71-10.84,7.56.81,2.1,2.46,2.28,4.44,1.68.03.15.06.29.09.44-1.54,1.23-3.03,2.54-4.64,3.66-1.01.7-1.9.22-2.39-1.02-.32-.81-.64-1.62-1.04-2.63.22-.61,1.9-.9.87-2.49-1.27.09-2.65.18-4.34.3.31-.59.5-.96.84-1.6-.51-.18-1.13-.63-1.46-.47-1.23.58-2.7.96-3.03,2.66-.09.49-.35,1.03-.7,1.36-1.25,1.2-2.16,2.47-1.19,4.35-.85.51-1.53.92-2.4,1.44.24,3.11-.51,6.06-2.83,8.38,1.56,1.81,2.99,3.47,4.67,5.42-.95.19-1.56.36-2.18.41-1.07.09-2.06.29-2.77,1.2-.48.61-1.08.66-1.8.44-.64-.19-1.33-.21-1.96-.42-2.21-.73-4.22-.06-6.42.78.3.53.54.95.85,1.49-.35.23-.73.49-1.1.74-1.06-.15-1.59-1.76-3.18-.94.23.6.37,1.24.71,1.74,1.14,1.68,1.14,3.23-.59,4.75.96.47,1.73.85,2.51,1.23.06-.07.12-.13.19-.2-.43-.4-.86-.81-1.36-1.28.86-.76,1.56-.11,2.22.2,1.75.82,1.81,1.17.78,3.19h-2.77l.07.06c-.06-.74-.51-.95-1.19-.99-1.33-.08-2.68-.16-3.98-.41-.58-.11-1.49-.58-1.54-.97-.15-1.27-1.18-1.81-1.82-2.65-.67-.89-1.33-1.79-2.11-2.57-.97-.97-1.45-1.97-1.02-3.38,1.17-3.89.22-5.49-3.62-7.36-.71-.35-1.33-.9-1.94-1.42-.91-.77-1.75-1.62-3.04-1.71-.97-.06-1.35-.78-1.72-1.54-.9-1.86-1.82-3.71-2.79-5.7-.73.41-1.29.72-2.03,1.14-.28-1.1-.53-2.08-.84-3.33-1.25.29-2.42.56-3.65.84,0,1.58-.08,2.98.04,4.36.05.5.5,1.11.94,1.41,1.95,1.31,3.11,3.17,3.83,5.32.67,1.99,1.77,3.39,4.03,3.5.28.01.55.2.95.36-.43,1.16.02,1.91,1.02,2.54,1.19.75,2.31,1.63,3.4,2.51.36.29.54.78.81,1.18l.05-.05c-.87-.16-1.75-.31-2.56-.46q-1.72,2.03-.08,4.99c-.72.73-1.45,1.42-2.14,2.16-.57.61-.53,1.88-2.05,1.83.18-.48.27-.8.41-1.1.37-.86,1.22-1.83,1.05-2.55-.43-1.75-.63-3.67-2.26-4.95-3.45-2.71-6.82-5.53-10.27-8.24-1.11-.87-1.9-1.82-2.16-3.24-.14-.8-.42-1.58-.66-2.37-.29-.99-.47-1.96-1.44-2.67-2.8-2.04-2.77-2.09-5.93-.51-1.33.66-2.67,1.31-3.97,2.03-.81.45-1.5.44-2.28-.07-1.06-.69-2.16-1.32-3.26-1.94-2.49-1.4-5.01.08-5.06,2.95-.01.66-.07,1.32-.11,2.15-1.5.36-2.92.78-4.36,1.02-1.6.26-2.96.9-4.09,2.06-.57.58-1.22,1.09-1.83,1.63-1.69,1.5-1.87,2.33-.88,4.61-1.54.55-2.79,1.5-3.31,3.26-1.72-.29-3.11.23-4.24,1.45-.59.64-1.28.6-2.04.27-.96-.41-1.98-.68-2.9-1.14-1.63-.81-3.23-.98-4.93-.24-.46.2-.99.26-1.6.42-.97-1.22-1.31-2.69-1.75-4.06-.44-1.36-1.16-2.1-2.62-2.32-1.3-.2-2.55-.69-3.94-1.09.17-.55.26-.98.42-1.38.98-2.37.96-2.37.87-5.59-.01-.37.18-.87.45-1.12,2.52-2.31,3.45-5.5,4.83-8.46.6-1.29.8-2.51.25-3.85-.16-.39-.16-.84-.28-1.51,1.42-.22,2.72-.49,4.02-.58.42-.03.9.36,1.3.63.66.45,1.21,1.12,1.92,1.41,3.99,1.63,8.01,3.18,12.03,4.75.26.1.56.14,1.15.28,1.42-3.34,2.83-6.67,4.26-10.05-1.52-1.28-1.89-2.84-1.92-4.5-.02-1.1-.55-1.79-1.49-2.28-.66-.34-1.28-.76-1.9-1.17q-1.54-1-.78-2.85c.08-.2.11-.42.19-.75h3.31q1.54,1.94,4.15,1.81c.07-1.13.15-2.29.23-3.62,1.2.11,1.89.94,2.65,1.54.87.68,1.68.85,2.64.31.32-.18.67-.34,1.02-.44,1.81-.52,3.29-1.35,3.22-3.7,1.46-.1,2.78-.13,4.08-.31.67-.09,1.74.29,1.76-1.08,0-.13.91-.25,1.42-.39-.94-1.93.64-2.78,1.59-4.17.4.76.69,1.32,1.01,1.93.2,0,.48.09.61-.01.73-.57.72-.58.4-2.32.61-1.02,1.46-1.04,2.48-.64.79.31,1.45.7,2.26-.4.76-1.03,1.68.08,2.5.75.5-.87,1.16-1.46,2.4-.79-.42-1.37-1.68-2.23-.75-3.5.08-.11-.05-.46-.18-.61-.49-.56-.99-1.06-.7-1.93.63-1.87,1.21-3.77,1.85-5.64.08-.22.44-.35.72-.55-.3-.23-.52-.4-.85-.65,1.06-1.32,2.66-1.37,4.49-2.12-.5,1.35-.87,2.33-1.27,3.41.37.42.74.85,1.14,1.32-.14.21-.22.43-.38.55-.52.42-1.08.8-1.61,1.2-1.69,1.28-2.21,4.08-.9,5.73.43.55,1.35.71,2.16,1.11.04.24.1.65.17,1.09.27.01.48.06.69.03.29-.04.59-.11.86-.21,2.06-.78,3.89-.77,5.21,1.37.21.35.67.54.75.6,1.13-.65,2.01-1.26,2.97-1.68,1.43-.62,2.92-1.09,4.39-1.64.67-.25,1.33-.38,1.82.28,1.25,1.71,2.82.98,4.35.73q-.03-1.84,1.42-1.75c.01-.11,0-.24.04-.33.76-1.75.59-3.54.53-5.39-.04-1.39.69-2.86,1.33-4.17.3-.61,1.21-.92,1.89-1.4.89,1.01,1.61,1.83,2.38,2.7,2.57-.81,1.31-2.99,1.91-4.63-2-.49-2.42-1.97-2.45-3.77,2.38-2.1,5.22-2.4,8.41-1.78.46-2.21,2.68-1.72,4.02-2.72-1.19-.74-2.31-1.44-3.75-2.34-2.89,1.19-6.17,2.54-9.49,3.91-.57-.51-.45-1.39-1.57-1.56-1.69-.26-1.93-1.13-1.82-2.95.07-1.16.04-2.38-.21-3.51-.86-4.04-1.22-2.58,1.34-5.97,1.61-2.13,3.27-4.22,4.95-6.38-.47-.83-.83-1.57-1.28-2.24-.87-1.29-2.39-1.35-3.77-.43-1.47.99-2.15,2.15-1.68,3.93.13.48.18,1.09,0,1.52-1.13,2.64-3.3,4.34-5.6,5.87-.25.16-.7.02-1.25.02-.38,2.75-.76,5.46-1.15,8.3,1.83.71,2.81,2.12,3.53,4.1-.41.31-.87.67-1.45,1.12.9.88.54,1.58-.46,2-.94.39-1.93.64-2.92.97-1.01,1.7.05,3.56-.43,5.24-.47,1.62-1.16,3.18-1.74,4.74h-2.59c-.49.82-1.02,1.7-1.58,2.63-1.15.03-2.36.41-3.38-1.1-.6.87-1.18,1.71-1.77,2.54-.19-.08-.39-.16-.58-.23-.37-.99-.74-1.99-1.08-2.88.87-1.2,1.76-.71,2.69-.25.6-1.09,1.15-2.1,1.81-3.28-.38-.91-.82-1.93-1.22-2.96-.21-.55-.5-1.13-.5-1.69,0-1.11.28-2.2-.82-3.04-.24-.19-.14-.84-.17-1.29-.06-.95-.11-1.9-.2-3.41-.57.93-.86,1.39-1.22,1.98-1.29-.29-2.26.3-3.15,1.35-.64.76-1.47,1.6-2.37,1.86-1.98.56-3.85-1.34-3.81-3.7.47.02.95.04,1.8.08-.9-.86-.38-2.25-2.04-2.4.51-.6.93-1.08,1.34-1.56,0-.13.06-.32,0-.4-.93-1.09-.54-2.28-.23-3.44.28-1.08,1.32-2,.52-3.31-.12-.2.5-.86.84-1.4.59-.08,1.44-.11,2.22-.35.24-.08.28-.77.45-1.31.53-.04,1.18-.14,1.83-.14,1.07-.01,1.78-.27,2.04-1.53.25-1.2.98-1.27,2.12-.68.52.27,1.29.48,1.77.29.46-.18.69-.93,1.11-1.55-1.14-.22-1.8,1.22-2.78.06.98-1.02,1.4-2.84,3.26-2.11.73-1.1,1.41-2.14,2.05-3.11.17-.64.2-1.35.52-1.9.84-1.43,1.8-2.8,2.73-4.18.11-.17.3-.43.45-.42,1.12.06.95-1.01,1.42-1.47.57-.55,1.01-.87.8-1.78-.07-.32.44-.9.82-1.17,1.46-1.01,3.06-1.86,3.26-3.93.02-.21.36-.4.58-.56.2-.14,1.09-.89,1.19-1.11.27.25.52.48.92.84.64-1.28,2.49-1.37,2.78-3.17.61.26,1.2.5,1.99.84.46-1.22.9-2.37,1.34-3.52,1.47-.43,1.45,2.36,3.24,1.14.15-.46.38-1.15.65-1.96,1.51.57,2.9,1.1,4.21,1.6-.09,1.79-1.53,1.34-2.48,1.87.52.75.7,1.8,1.97.99.2-.13.66-.14.82,0,.86.74,1.28-.24,1.96-.48.2.83.6,1.29,1.54,1.17,3.39-.44,6.45.85,9.43,2.12,1.72.73,3.19,2.07,4.68,3.08-.08.51-.08.74-.15.94q-1.42,4.03-5.68,3.6c-2.36-.24-4.72-.45-7.09-.66-.04,0-.1.09-.24.22.62,1.07,2.23,1.33,2.43,2.87.04.32,1.29.49,1.95.71-.03,4.65,1.9,5.89,6.72,6.76.17-.6.34-1.22.5-1.81-1-.65-1.9-1.21-2.76-1.83-.1-.07.1-.53.17-.87,1.95-.27,3.79,1.1,5.82.11-.28-.5-.48-1.06-.85-1.48-.92-1.06-.9-2.11-.23-3.27.56-.96,1.04-1.96,1.65-3.11,1.03.27,2.01.53,2.99.79.09-1.47-1.41-5.85-3.1-9.06,1.48.12,2.95-.2,4.25,1.04-.48.79-.92,1.53-1.36,2.26,1.79,1.92,1.83,1.93,3.94.64-.07-.45-.22-.95-.2-1.44.02-.46.06-1.1.35-1.34.59-.49.67-.81.25-1.46-.14-.22.18-.81.4-1.16.48-.75.96-1.53,1.58-2.16.57-.58,1.33-.99,1.97-1.44.53.2,1.15.68,1.59.55.52-.16.94-.8,1.32-1.29.26-.33.29-.96.59-1.11,1.44-.75,2.02-2.06,2.47-3.56.59.14,1.07.26,1.58.39.33-.62.64-1.2.98-1.84-.26-.23-.47-.42-.69-.6-.66-.53-1.91-.6-1.77-1.75.16-1.31,1.48-.97,2.32-1.27,2.5-.88,5.04-1.02,7.66-.44,3.04.68,4.93,2.7,5.7,5.76.62,2.47.23,4.78-.64,6.98-1.06,2.67-.61,4.9.78,7.35,2.77,4.84,5.23,9.86,7.86,14.78.55,1.03.79,1.98.52,3.18-.48,2.16-.76,4.37-1.17,6.79h5.85c.37,1.04.68,1.93,1.02,2.91-1.46,1.64-2.88,3.25-4.43,5.01,2.01,1.08,3.8,2.13,5.66,3.03,1.29.62,2.13,1.5,2.57,2.87.29.91.76,1.77,1.21,2.8,1.74-.13,3.42-.3,5.12-.38,1.69-.09,2.46.94,1.88,2.51-.33.89-.81,1.72-1.2,2.53-1.77.18-4.02-1.75-4.95,1.76v-1.31c-2.25.08-2.69.5-2.21,2.1-.92.18-1.73,1.06-1.78,1.94-1.37-.43-1.43.58-1.5,1.67-.43-.34-.69-.56-.96-.77.68-.15.9-.54.22-.89-.49-.26-1.14-.2-1.2.64ZM885.06,177.94c-.69.93-1.23,1.67-1.83,2.48,1.28,1.62,2.44,3.09,3.84,4.85.99-1.4,1.75-2.48,2.6-3.68-1.6-1.27-2.97-2.35-4.61-3.65ZM892.41,173.08c-.09.09-.19.18-.28.27.2.48.41.95.82,1.91-1-.54-1.53-.83-2.06-1.12-.5,1.41-.31,1.92.85,3,.69.65,2.02.83,1.78,2.23.51.07,1.33.36,1.46.18.33-.49.61-1.27.44-1.77-.43-1.24-1.07-2.43-1.74-3.57-.27-.46-.83-.75-1.26-1.12ZM838.09,179.26c.78.51,1.35.88,2.02,1.32.27-.3.56-.61,1.21-1.32h-3.23Z"/><path class="cls-5" d="M0,268.06c2.82-1.88,5.9-4.15,9.08-5.5.85-.4,4.17-1.95,5.12-2.4,13.66-6.38,27.46-12.46,41.32-18.4,74.01-31.41,149.38-59.78,226.28-83.36,45.83-13.52,92.33-26.84,140.2-30.68,3.41-.29,8.06-.29,11.52-.43,6.72.21,13.34.55,19.74,3.18,2.67,1.1,5.38,2.9,7.39,5.46,2.43,3.59,3.85,7.95,4.07,12.25.42,8.31-2.74,16.05-6.71,22.99-9.41,16.78-25.55,28.99-40.13,40.1-11.69,9.07-23.13,18.56-34.84,27.83-7.31,5.78-14.6,11.33-21.56,17.36-3,2.72-6.44,5.5-8.36,8.92-.23.45-.2.74-.21.43,0,0-.11-.54-.11-.54-.09-.41-.35-.81-.6-1.04-.24-.23-.38-.3-.45-.33-.1-.03.19.04.49.07,7.49-.1,15.06-3.32,22.24-5.8,0,0,26.59-10.17,26.59-10.17,43.42-16.73,90.55-32.91,134.7-47.32,226.31-72.41,458.72-127.6,692.54-169.73,36.24-6.47,76.24-13.14,112.68-18.63,27.11-3.92,57.94-9.5,85.35-11.73,40.07-3.24,70.73,6.27,93.3,42.01,19.22,31.24,31.77,66.48,38.92,102.37,14.33,73.58,6.94,149.27-3.45,222.85-2.81,19.03-5.37,37.81-8.78,56.78-1.93,9.98-4.46,20.35-8.94,29.65-6.65,14.08-19.58,27.16-36.13,27.72-6.57.27-13.19-1.54-19.15-3.71,0,0-3.37-1.04-3.37-1.04,0,0-26.98-8.31-26.98-8.31-7.15-2.28-19.79-5.75-27.2-7.88-8.52-2.44-19.02-5.44-27.34-7.52-118.65-31.49-240.75-52.03-362.75-64.99-79.54-8.08-160.51-14.34-240.51-14.34-217.99-.12-435.99,17.18-652.18,44.48-26.56,3.65-74.5,11.78-88.38-17.27-12.6-29.71,27.62-59.69,47.55-75.94,37.43-29.6,78.31-54.32,117.33-81.57,3.86-2.76,7.75-5.48,11.45-8.26,5.13-4.03,10.69-8,14.35-13.18.58-.89.96-1.6,1.1-2.25,0-.01.01.14.09.28.06.14.18.24.16.22-.01-.02-.12-.12-.32-.25-.44-.25-1.18-.55-2.05-.77-1.75-.45-3.88-.67-6.04-.76-8.9-.27-18.36,1.01-27.23,2.7-12.41,2.33-30.23,5.97-41.93,8.25-55.85,11.22-111.47,23.55-166.35,38.91,0,0-.05.01-.05.01,0,0-.05.01-.05.01-.19.04-.52.05-.84-.12-.32-.17-.49-.45-.55-.62h0ZM2.18,267.32c-.04-.17-.19-.46-.48-.63-.29-.18-.61-.17-.77-.13l-.1.02c63.21-20.33,128.37-36.21,193.19-50.69,8.97-1.99,19.48-4.53,28.33-5.68,7.61-.91,15.18-1.8,23.01-.23,6.64,1.23,11.73,6.58,9.52,13.56-1.54,4.47-4.25,7.81-7.29,10.91-7.07,7.09-14.91,12.62-22.73,18.52-41.92,30.71-86.67,58.89-125.6,92.79-6.92,5.99-13.76,12.19-19.71,19.08-5.41,6.2-10.51,13.48-12.28,21.01-3.39,15.86,15.44,19.41,27.6,19.78,14.61.62,29.63-2,44.35-4.3,23.58-3.43,47.22-6.6,70.83-9.67,84.67-11.07,170.42-20.3,255.58-27.22,75.08-6.1,152.97-10.61,228.27-12.65,46.4-1.39,96.67-1.65,143.11-1.15,85.78,3.04,171.76,10.21,256.82,21.53,134.09,18.04,267.76,45.78,396.37,88.14,0,0,1.5.51,1.5.51,3.06,1,5.38,1.58,8.38,1.67,4.27,0,8.65-2.17,11.75-5.15,9.7-9.36,13.16-23.36,15.78-36.33,1.73-9.06,3.22-18.56,4.67-27.76,8.82-55.8,16.8-111.97,16.35-168.54-.44-54.47-9.78-109.66-34.8-158.19-8.42-16.46-18.65-32.77-35.32-41.81-24.1-12.73-52.72-8.07-78.86-4.94-92.12,12.58-189.31,28.72-280.82,46.3-195.61,37.87-389.83,84.65-580.1,143.89-20.96,6.66-46.79,15.03-67.62,22.16-29.25,9.86-64.83,22.96-93.75,33.87-4.54,1.65-9.12,3.22-13.94,4.48-4.73,1.06-9.94,2.7-14.95.84-7.9-4.12-1.15-12.89,3.52-16.97,8.26-7.7,17.5-14.4,26.3-21.3,14.4-11.31,29.21-23.25,44-34.31,11.44-8.8,22.53-18.45,29.77-31.01,5.17-8.38,8.59-19.85,3.31-27.79-2.19-2.88-6.6-4.47-11.18-5.25-3.46-.6-7.18-.87-10.75-.96,0,0-3.68.08-3.68.08l-3.68.08c-8.35.31-17.63,1.23-25.93,2.36-59.45,8.7-117.19,26.61-174.29,45.09-57.13,18.97-113.61,40.01-169.21,63.09-13.89,5.79-27.72,11.73-41.42,17.97,0,0-6.64,3.03-6.64,3.03-2.03.9-4.21,1.14-6.41,1.91h0Z"/><path class="cls-8" d="M1040.92,274.36c-.48-1.45-.98-2.9-1.49-4.35-.51-1.45-1.03-2.9-1.56-4.35-.53-1.45-1.06-2.9-1.6-4.34-.54-1.45-1.07-2.89-1.6-4.33s-1.05-2.87-1.57-4.29c-.88-.15-1.73-.3-2.55-.47-.83-.17-1.63-.34-2.4-.53-.78-.19-1.53-.39-2.26-.6-.73-.21-1.43-.44-2.12-.67-1.2-.42-2.32-.88-3.38-1.38-2.61-1.24-17.55-6.72-22.77-10.13-2.63,64.21-45.36,106.32-116.77,117.92-69.35,11.26-126.9-53.84-126.9-120.25,0-24.9,7.98-48.02,21.66-67.21,12.23-22.9,37.77-40.75,69.49-48.19,4.08-1.13,31.27-8.44,31.27-8.44l-39.84,10.75,85.49-23.06c-.71-.63-1.37-1.21-1.67-1.47-.74-.63-1.49-1.25-2.27-1.87-.78-.62-1.57-1.24-2.39-1.86-.82-.61-1.65-1.22-2.51-1.82-.86-.6-1.73-1.19-2.63-1.77-.9-.58-1.81-1.15-2.75-1.7-.94-.56-1.9-1.1-2.89-1.62-.99-.52-1.99-1.03-3.03-1.52-1.03-.49-2.09-.96-3.18-1.41-1.09-.45-2.2-.87-3.35-1.28-1.15-.4-2.32-.78-3.53-1.13-1.21-.35-2.45-.68-3.73-.97-1.28-.3-2.6-.56-3.97-.8-1.36-.24-2.77-.44-4.23-.62-1.46-.17-2.97-.31-4.53-.42-.78-.05-1.58-.1-2.4-.13-.81-.03-1.64-.06-2.49-.08s-1.71-.02-2.6-.02c-.88,0-1.79.02-2.71.04-.92.02-1.87.05-2.83.08-.96.04-1.95.08-2.96.13-1.01.05-2.05.11-3.1.17-1.05.06-2.12.13-3.19.21-1.07.07-2.15.16-3.24.24-1.09.09-2.19.18-3.3.28-1.11.1-2.22.21-3.35.32-1.13.11-2.26.23-3.4.36-1.28.55-2.43,1.04-3.52,1.5-1.08.45-2.09.87-3.07,1.28-.98.4-1.94.8-2.93,1.2-.99.4-2,.81-3.1,1.25-1.1.44-2.28.91-3.6,1.43-.03,1.72-.08,3.14-.13,4.46s-.11,2.54-.18,3.85-.15,2.7-.26,4.36c-.42.66-.91,1.26-1.49,1.8-.8.75-1.75,1.38-2.85,1.9-1.1.52-2.34.91-3.73,1.18-1.12.22-2.33.33-3.57.35-1.24.02-2.52-.06-3.78-.21-1.26-.16-2.52-.39-3.71-.69-1.19-.3-2.3-.72-3.32-1.25-1.02-.53-1.97-1.16-2.85-1.88-.88-.72-1.69-1.54-2.45-2.43-.76-.89-1.46-1.87-2.12-2.9-.66-1.03-1.28-2.13-1.87-3.27-1.26.49-2.51.98-3.76,1.48-1.25.49-2.5.99-3.75,1.49-1.25.5-2.5,1.01-3.75,1.52-1.25.51-2.51,1.03-3.77,1.55-1.26.52-2.52,1.05-3.79,1.58.31.95.59,1.88.82,2.78.24.9.44,1.77.6,2.62.16.85.29,1.67.38,2.48.09.8.14,1.58.15,2.34.02,1.51-.11,2.94-.41,4.28-.29,1.34-.75,2.61-1.37,3.81-.62,1.2-1.4,2.32-2.36,3.38-.95,1.06-2.08,2.06-3.37,3-.71.52-1.43.99-2.13,1.42-.71.43-1.41.82-2.11,1.17-1.4.69-2.78,1.22-4.13,1.57-1.35.36-2.68.54-3.98.56s-2.57-.13-3.8-.44c-1.23-.31-2.43-.79-3.58-1.43-1.16-.64-2.27-1.44-3.34-2.41-.54-.49-1.07-1.01-1.59-1.58l-3.17-.12c-1.29,1.28-2.59,2.56-3.89,3.85-.62.62-1.24,1.23-1.86,1.85-.62.62-1.24,1.24-1.87,1.86s-1.25,1.24-1.87,1.86c-.62.62-1.25,1.24-1.87,1.87-.62.62-1.25,1.25-1.87,1.87-1.25,1.25-2.5,2.51-3.76,3.77.49.75.95,1.49,1.37,2.24.42.74.81,1.49,1.16,2.23.7,1.48,1.27,2.96,1.68,4.43.41,1.47.67,2.94.77,4.39.1,1.46.05,2.9-.18,4.34-.22,1.44-.61,2.86-1.16,4.27-.56,1.41-1.28,2.8-2.18,4.17-.73,1.11-1.58,2.2-2.51,3.23-.93,1.03-1.9,1.97-2.94,2.86-1.04.89-2.13,1.7-3.24,2.4-1.23.78-2.48,1.39-3.74,1.84-1.26.45-2.52.74-3.79.89-1.27.15-2.54.15-3.81.02-1.27-.13-2.54-.39-3.8-.76-1.26-.37-2.51-.85-3.74-1.42-.35.74-.7,1.48-1.04,2.23-.34.75-.68,1.49-1.02,2.24-.34.75-.67,1.5-1,2.26-.33.75-.66,1.51-.98,2.27-.32.76-.65,1.52-.96,2.28-.32.76-.63,1.53-.95,2.3-.31.77-.62,1.54-.93,2.31-.31.77-.62,1.55-.92,2.32-.3.78-.61,1.56-.91,2.34-.3.78-.6,1.56-.9,2.35.87.49,1.71.99,2.5,1.51.8.52,1.56,1.06,2.29,1.62.72.56,1.41,1.13,2.06,1.72.65.59,1.25,1.2,1.82,1.83.57.63,1.09,1.27,1.57,1.94.48.66.92,1.34,1.32,2.04.79,1.4,1.41,2.86,1.84,4.4.22.77.39,1.55.51,2.35s.2,1.61.22,2.44c.03.83,0,1.67-.07,2.53-.07.86-.19,1.73-.36,2.62-.28,1.44-.7,2.88-1.24,4.29-.54,1.41-1.18,2.79-1.91,4.1-.73,1.3-1.53,2.53-2.38,3.65-.53.69-1.08,1.32-1.66,1.89-.58.57-1.18,1.08-1.81,1.53s-1.27.84-1.94,1.18c-.67.34-1.35.62-2.05.85-.7.23-1.42.41-2.15.54-.73.13-1.48.21-2.23.24-.76.03-1.52.02-2.3-.04-.77-.06-1.56-.16-2.35-.3-.13,1.59-.27,3.12-.41,4.62-.14,1.5-.29,2.96-.44,4.4-.15,1.44-.29,2.85-.42,4.25-.13,1.4-.26,2.79-.38,4.16-.12,1.37-.25,2.73-.38,4.07-.14,1.34-.28,2.66-.45,3.96.87.18,1.71.37,2.51.58.81.21,1.58.42,2.33.66.75.23,1.46.48,2.14.74.68.26,1.34.54,1.96.83,1.24.59,2.36,1.24,3.34,1.95.99.72,1.84,1.5,2.58,2.34.74.84,1.36,1.76,1.88,2.74.51.98.92,2.04,1.22,3.17.3,1.13.49,2.32.59,3.59.09,1.27.08,2.47-.06,3.62-.13,1.15-.39,2.23-.77,3.27-.38,1.04-.89,2.02-1.53,2.96-.64.94-1.41,1.83-2.33,2.68-.46.42-.95.84-1.47,1.24-.53.4-1.09.79-1.68,1.17-.6.38-1.23.75-1.89,1.1-.67.36-1.37.7-2.11,1.04-.74.33-1.51.66-2.33.97-.81.31-1.66.61-2.54.9.46,1.26.93,2.51,1.4,3.77.47,1.25.95,2.5,1.43,3.75.5,1.31,1.01,2.62,1.52,3.93.51,1.31,1.01,2.62,1.52,3.93.99.58,1.73,1.01,2.47,1.45.74.43,1.48.86,2.47,1.44.39-.04.78-.08,1.17-.11.77-.06,1.52-.11,2.26-.13.74-.02,1.46-.02,2.16,0,1.41.04,2.75.18,4.02.4,1.27.23,2.47.54,3.61.96,1.13.42,2.19.93,3.18,1.54.98.62,1.89,1.33,2.73,2.16.83.82,1.58,1.75,2.25,2.79.6.93,1.07,1.95,1.42,3.03.36,1.08.6,2.21.74,3.36.14,1.15.17,2.3.12,3.43-.06,1.2-.3,2.35-.68,3.45-.39,1.1-.92,2.14-1.59,3.13-.66.99-1.45,1.94-2.33,2.84-.89.9-1.87,1.76-2.93,2.58-1.06.82-2.2,1.6-3.38,2.34.8,1.25,1.56,2.47,2.33,3.66.77,1.19,1.54,2.35,2.3,3.49.76,1.14,1.52,2.25,2.27,3.35.75,1.1,1.5,2.18,2.25,3.24.75,1.06,1.49,2.11,2.24,3.15.87-.4,1.73-.77,2.57-1.12.84-.35,1.66-.67,2.47-.96.81-.29,1.6-.56,2.37-.8.77-.24,1.53-.45,2.27-.64.74-.18,1.46-.34,2.17-.47.71-.13,1.4-.22,2.08-.29,1.35-.14,2.64-.15,3.86-.05,1.22.1,2.38.33,3.48.68,1.1.35,2.13.82,3.1,1.42.97.6,1.88,1.32,2.72,2.16.75.75,1.4,1.6,1.95,2.52.55.92,1.01,1.91,1.37,2.92.36,1.01.63,2.04.81,3.05.22,1.24.2,2.47-.02,3.67-.23,1.2-.66,2.38-1.26,3.54-.6,1.16-1.38,2.3-2.29,3.41-.46.56-.95,1.11-1.47,1.66s-1.07,1.09-1.65,1.62c1.02.61,2.02,1.23,3.03,1.84,1,.61,2,1.23,2.99,1.84.99.61,1.97,1.23,2.95,1.85.98.62,1.95,1.24,2.92,1.86.97.62,1.94,1.24,2.9,1.87.96.63,1.92,1.26,2.88,1.89.75-.62,1.5-1.21,2.23-1.76s1.46-1.08,2.18-1.57c.72-.49,1.43-.95,2.13-1.38.7-.43,1.39-.82,2.08-1.19.69-.36,1.36-.69,2.03-.99.67-.3,1.34-.57,1.99-.8,1.32-.47,2.61-.81,3.87-1.03,1.27-.22,2.51-.3,3.74-.26s2.44.21,3.64.51c1.2.3,2.38.73,3.55,1.29,1.17.56,2.2,1.19,3.11,1.89.91.7,1.69,1.48,2.34,2.33.65.85,1.18,1.77,1.57,2.77.39,1,.66,2.07.79,3.22.13,1.15.14,2.37.02,3.67-.12,1.3-.38,2.67-.76,4.12-.19.73-.42,1.47-.67,2.23-.26.76-.55,1.55-.87,2.35.72.21,1.43.42,2.14.63.71.21,1.43.42,2.14.63.71.21,1.43.42,2.14.63.71.21,1.42.42,2.13.64.71.21,1.42.43,2.13.64.71.21,1.42.43,2.13.64.71.22,1.41.43,2.12.65.71.22,1.41.43,2.12.65.7.22,1.41.44,2.11.65.7.22,1.4.44,2.1.66.43-.81.87-1.58,1.32-2.32.45-.74.92-1.45,1.39-2.13s.96-1.32,1.46-1.94c.5-.61,1.01-1.2,1.53-1.75.52-.55,1.05-1.07,1.59-1.56.54-.49,1.09-.95,1.65-1.38,1.12-.86,2.27-1.59,3.46-2.2,1.19-.61,2.41-1.09,3.66-1.44,1.25-.35,2.53-.58,3.83-.68,1.3-.1,2.63-.06,3.97.1,1.36.17,2.62.45,3.78.85,1.16.4,2.22.91,3.17,1.54.95.63,1.8,1.37,2.54,2.22.74.85,1.38,1.81,1.9,2.89.52,1.07.93,2.25,1.23,3.54.3,1.29.48,2.68.55,4.19.02.38.03.76.03,1.15.71.67,1.28,1.21,1.84,1.74.57.53,1.13,1.07,1.84,1.74,1.25-.06,2.49-.13,3.74-.19,1.27-.07,2.53-.13,3.8-.2,1.14-.06,2.27-.12,3.4-.17.47-.1,1.21-.25,1.68-.35.54-.2,1.12-.42,1.72-.65.91-.34,1.85-.7,2.76-1.04.91-.34,1.77-.67,2.53-.95.26-.83.53-1.64.82-2.42.57-1.56,1.2-3,1.88-4.34.68-1.34,1.43-2.57,2.23-3.7.8-1.12,1.67-2.14,2.6-3.05.93-.91,1.93-1.71,2.99-2.4,1.07-.69,2.2-1.28,3.4-1.76,1.2-.48,2.48-.85,3.82-1.12,1.27-.25,2.57-.38,3.87-.41,1.3-.02,2.6.06,3.85.23,1.25.17,2.46.44,3.59.78,1.37.41,2.55,1.02,3.55,1.79,1.01.77,1.84,1.7,2.52,2.77.68,1.07,1.22,2.27,1.63,3.58.41,1.31.69,2.73.87,4.24,1.31-.51,2.6-1.02,3.89-1.53.65-.25,1.29-.51,1.93-.76.64-.25,1.28-.5,1.92-.75.64-.25,1.28-.5,1.91-.75.64-.25,1.27-.5,1.91-.75,1.27-.5,2.53-.99,3.79-1.49.64-.25,1.28-.5,1.92-.75.64-.25,1.28-.5,1.91-.75.62-.88,1.24-1.76,1.86-2.63.62-.88,1.24-1.76,1.86-2.63.02-.41.04-.81.07-1.21.11-1.59.31-3.08.6-4.5s.66-2.75,1.13-4.01c.47-1.26,1.03-2.44,1.69-3.56.66-1.12,1.42-2.16,2.28-3.15.86-.99,1.83-1.91,2.9-2.78.54-.43,1.1-.85,1.68-1.26.59-.41,1.2-.8,1.85-1.18.63-.37,1.25-.72,1.87-1.02.62-.31,1.24-.58,1.85-.82,1.22-.48,2.43-.83,3.63-1.03,1.2-.21,2.39-.28,3.57-.21,1.18.07,2.36.27,3.53.62,1.17.35,2.34.84,3.51,1.47,1.17.63,2.33,1.4,3.5,2.32.58.46,1.16.95,1.75,1.48.58.53,1.16,1.1,1.74,1.7,1.12-.85,2.25-1.71,3.37-2.56,1.12-.85,2.25-1.71,3.39-2.58.57-.43,1.14-.86,1.71-1.3.57-.43,1.14-.87,1.72-1.31.57-.44,1.15-.87,1.72-1.31s1.15-.88,1.73-1.32c.58-.44,1.16-.88,1.74-1.33.58-.44,1.16-.89,1.75-1.33.58-.45,1.17-.89,1.75-1.34.58-.45,1.17-.9,1.76-1.35-.73-1.49-1.33-2.94-1.82-4.35s-.85-2.79-1.09-4.13c-.24-1.34-.35-2.65-.33-3.94.02-1.28.17-2.54.45-3.78.28-1.24.7-2.46,1.25-3.66.55-1.21,1.24-2.4,2.08-3.58.42-.59.87-1.18,1.35-1.77.49-.59,1.01-1.18,1.57-1.77.56-.59,1.13-1.15,1.7-1.69.57-.53,1.15-1.03,1.74-1.5.59-.47,1.18-.91,1.78-1.31.6-.41,1.22-.78,1.84-1.13s1.26-.66,1.9-.94c.64-.28,1.3-.54,1.97-.76.67-.22,1.35-.41,2.05-.58.7-.16,1.4-.29,2.13-.39s1.46-.17,2.21-.21c.75-.04,1.52-.05,2.31-.02.78.02,1.59.08,2.4.16.82.09,1.65.2,2.5.35.85.15,1.72.33,2.6.54s1.79.45,2.7.73c.47-.63.93-1.25,1.4-1.88.46-.63.93-1.26,1.39-1.88.46-.63.93-1.26,1.39-1.89.46-.63.92-1.26,1.38-1.89.46-.63.92-1.26,1.38-1.88.46-.63.91-1.26,1.37-1.88.45-.63.91-1.25,1.36-1.88.45-.63.9-1.25,1.35-1.88s.89-1.25,1.34-1.87.88-1.24,1.32-1.86c.88-1.24,1.74-2.47,2.6-3.7-.74-.36-1.44-.74-2.14-1.13-.7-.39-1.37-.81-2.01-1.23-.64-.43-1.25-.88-1.84-1.34-.58-.46-1.14-.94-1.66-1.44-1.05-.99-1.98-2.05-2.78-3.16-.81-1.11-1.5-2.28-2.07-3.5-.57-1.22-1.03-2.49-1.36-3.81s-.56-2.68-.67-4.08c-.11-1.4-.11-2.84,0-4.31.12-1.52.32-2.95.63-4.29.31-1.34.72-2.58,1.24-3.72.52-1.14,1.16-2.18,1.93-3.11.76-.93,1.65-1.75,2.68-2.45,1.03-.7,2.19-1.29,3.51-1.75.66-.23,1.36-.43,2.09-.59.74-.16,1.51-.3,2.33-.39.82-.1,1.68-.16,2.58-.18.9-.03,1.85-.01,2.84.04-.44-1.44-.9-2.89-1.38-4.34Z"/><path class="cls-5" d="M1025.08,228.1s21.48,17.96,15.37,46.74c0,0,70.85-34.96,102.96-51.28,0,0-111.23,3.34-118.33,4.54Z"/><path class="cls-5" d="M1025.42,228.2c.2-.05.08-.22.2-.09,2.36,2.05,4.42,4.39,6.36,6.83,8.07,10.31,12.16,23.89,10.28,36.92,0,0-.46,3.27-.46,3.27l-1.96-1.52c33.03-17.26,69.19-35.73,102.1-52.92,0,0,1.56,6.1,1.56,6.1-36.93,2.14-74,2.34-110.99,1.69-2.05-.03-5.09,0-7.09-.28h0ZM1024.74,228.01c2.44-.82,5.14-1.04,7.67-1.39,7.36-.92,14.76-1.62,22.15-2.27,19.69-1.63,39.4-2.86,59.14-3.51,9.92-.32,19.84-.42,29.77-.51,3.37-.03,4.5,4.64,1.4,6.1-25.01,11.87-52.73,25.23-77.84,37.27,0,0-25.97,12.37-25.97,12.37-.69.33-1.52.04-1.85-.66-.13-.28-.16-.58-.11-.87.28-1.87.89-4.33.99-6.18,1.26-11.57-2.32-23.32-9.01-32.77-1.79-2.47-3.71-4.86-5.93-6.97-.03-.03-.13-.11-.23-.25-.09-.13-.14-.27-.17-.38h0Z"/><path class="cls-7" d="M991.79,280.52s-20.57-19.1-13.03-47.46c0,0-72.58,30.98-105.5,45.49,0,0,111.37,2.78,118.53,1.97Z"/><path class="cls-5" d="M991.46,280.41c-.2.04-.09.22-.21.08-2.25-2.17-4.19-4.61-6-7.15-7.54-10.71-10.98-24.47-8.44-37.39,0,0,.62-3.25.62-3.25,0,0,1.87,1.62,1.87,1.62l-26.17,11.83c-25.37,11.42-53.38,23.88-78.57,35.34,0,0-1.22-6.17-1.22-6.17,37.04-.11,74.11,1.73,111.05,4.41,2.05.14,5.09.27,7.07.67h0ZM992.12,280.63c-2.48.68-5.2.75-7.74.97-7.41.52-14.84.8-22.26,1.05-19.77.54-39.55.68-59.32.25-9.93-.23-19.86-.67-29.79-1.13-3.36-.16-4.23-4.88-1.06-6.17,34.32-14.04,71.81-29.72,106.26-43.81,1.01-.45,2.17.56,1.87,1.62-.38,1.86-1.11,4.28-1.3,6.13-1.83,11.49,1.17,23.41,7.39,33.18,1.67,2.56,3.47,5.04,5.57,7.26.02.03.13.12.22.26.08.13.13.28.15.39h0Z"/><path class="cls-3" d="M976.09,238.15s.08-1.19.49-2.91c.83-3.44,3-9.02,8.59-11.47,8.38-3.69,23.78-13.69,32.66-7.25,8.88,6.44,29.53,18.92,26.39,52.03,0,0-25.09,35.73-48.04,17.8,0,0-19.05-18.11-20.62-27.87-1.58-9.77.53-20.32.53-20.32Z"/><path class="cls-5" d="M975.34,238.05c.68-4.84,2.63-9.74,6.4-13.04,1.86-1.63,4.17-2.52,6.28-3.78,2.06-1.2,4.11-2.45,6.23-3.65,6.79-3.77,14.36-7.97,22.53-5.45,1.36.42,2.72,1.26,3.92,2.03,5.26,3.31,10.35,6.86,14.84,11.48,11.72,11.86,15.57,27.15,14.68,43.47-.01,1.11-.45,2.06-1.07,2.9-.67,1.12-1.63,2.24-2.34,3.28-7.41,9.54-16.18,18.82-28.27,22.6-9.37,3.01-19.76.62-27.16-5.88-6.97-7.32-12.42-15.44-16.38-24.85-.92-2.42-1.83-4.82-2.06-7.8-.14-2.61.05-4.96.24-7.37.45-4.76,1.18-9.43,2.16-13.94h0ZM976.83,238.25c-.86,6.26-.67,12.54,1.01,18.57.27.95.63,1.87,1.12,2.71,3.2,5,7.81,8.74,12.3,12.76,0,0,10.03,8.69,10.03,8.69,0,0-.54-.47-.54-.47,1.51.92,2.97,1.76,4.44,2.24,12.32,3.95,26.6-8.54,34.09-17.66,0,0-1.07,2.9-1.07,2.9,1.04-8.58.72-17.38-2.63-25.4-3.24-8.25-9.21-14.84-16.27-20.36-.8-.63-3.22-2.57-4-3.18-5.55-3.65-13.53-.64-19.71,1.43-2.21.84-4.42,1.75-6.64,2.67-2.1.96-4.44,1.56-6.3,3-3.68,2.81-5.49,7.56-5.84,12.1h0Z"/><path class="cls-2" d="M999.55,244.46s0-.3.09-.74c.16-.87.63-2.26,1.97-2.82,2.01-.84,5.66-3.2,7.9-1.45s7.43,5.18,7.03,13.58c0,0-5.73,8.8-11.54,3.96,0,0-4.86-4.84-5.35-7.35s-.1-5.17-.1-5.17Z"/><path class="cls-5" d="M998.8,244.4c.26-1.42.82-3.08,2.18-4.07.74-.47,1.93-1.5,2.6-2.1,1.63-1.63,5.04-3.27,7.72-1.63,3.46,1.52,6.57,3.95,8.57,7.33,1.75,2.89,2.5,6.25,2.7,9.39.05.82-.15,1.6-.53,2.26-3.07,5.72-7.35,11.29-14.78,10.6-2.93-.3-5.52-1.81-7.57-3.86-2.53-3.54-2.89-7.78-2.72-12.18.54-1.88,1.4-3.99,1.83-5.72h0ZM1000.3,244.53c0,1.71.71,3.43,2.02,4.56,2.59.37,5.72,1.17,7.99,2.58,0,0-.49-.45-.49-.45.2-.2-.12-.49-.82-.58-.66-.08-1.05.27-.81.41.66.39,2.28-.53,2.95-1.07.13-.09.33-.3.34-.24l-.97,3.01c1.02-3.85,0-7.3-2.9-10.35-.09-.12-.26-.3-.16-.26.18-.06.34-.26.14-.46-1.06-.94-3.95-.45-5.47-.05-1.33.16-1.93,1.52-1.82,2.89h0Z"/></svg>